<?xml version="1.0" standalone="yes"?>

<svg version="1.1" viewBox="0.0 0.0 960.0 720.0" fill="none" stroke="none" stroke-linecap="square" stroke-miterlimit="10" xmlns="http://www.w3.org/2000/svg" xmlns:xlink="http://www.w3.org/1999/xlink"><clipPath id="p.0"><path d="m0 0l960.0 0l0 720.0l-960.0 0l0 -720.0z" clip-rule="nonzero"></path></clipPath><g clip-path="url(#p.0)"><path fill="#000000" fill-opacity="0.0" d="m0 0l960.0 0l0 720.0l-960.0 0z" fill-rule="nonzero"></path><path fill="#00ff00" d="m148.54462 39.61155l662.91077 0l0 80.38845l-662.91077 0z" fill-rule="nonzero"></path><path stroke="#000000" stroke-width="1.0" stroke-linejoin="round" stroke-linecap="butt" d="m148.54462 39.61155l662.91077 0l0 80.38845l-662.91077 0z" fill-rule="nonzero"></path><path fill="#000000" d="m433.73633 88.34577l0 -17.1875l6.4375 0q1.96875 0 3.15625 0.53125q1.1875 0.515625 1.859375 1.609375q0.6875 1.078125 0.6875 2.265625q0 1.09375 -0.609375 2.078125q-0.59375 0.96875 -1.796875 1.5625q1.5625 0.453125 2.390625 1.5625q0.84375 1.09375 0.84375 2.59375q0 1.203125 -0.515625 2.25q-0.5 1.03125 -1.25 1.59375q-0.75 0.5625 -1.890625 0.859375q-1.125 0.28125 -2.765625 0.28125l-6.546875 0zm2.265625 -9.96875l3.71875 0q1.515625 0 2.171875 -0.1875q0.859375 -0.265625 1.296875 -0.859375q0.4375 -0.59375 0.4375 -1.5q0 -0.859375 -0.40625 -1.5q-0.40625 -0.65625 -1.171875 -0.890625q-0.765625 -0.25 -2.609375 -0.25l-3.4375 0l0 5.1875zm0 7.9375l4.28125 0q1.09375 0 1.546875 -0.078125q0.78125 -0.140625 1.3125 -0.46875q0.53125 -0.328125 0.859375 -0.953125q0.34375 -0.625 0.34375 -1.453125q0 -0.953125 -0.5 -1.65625q-0.484375 -0.71875 -1.359375 -1.0q-0.875 -0.296875 -2.515625 -0.296875l-3.96875 0l0 5.90625zm13.8828125 2.03125l0 -17.1875l12.421875 0l0 2.03125l-10.15625 0l0 5.265625l9.5 0l0 2.015625l-9.5 0l0 5.84375l10.546875 0l0 2.03125l-12.8125 0zm15.8671875 0l0 -17.1875l2.265625 0l0 15.15625l8.46875 0l0 2.03125l-10.734375 0zm20.171875 0l0 -17.1875l2.28125 0l0 7.0625l8.921875 0l0 -7.0625l2.28125 0l0 17.1875l-2.28125 0l0 -8.09375l-8.921875 0l0 8.09375l-2.28125 0zm25.144531 0l0 -1.828125q-1.453125 2.109375 -3.9375 2.109375q-1.109375 0 -2.0625 -0.421875q-0.953125 -0.421875 -1.421875 -1.0625q-0.453125 -0.640625 -0.640625 -1.5625q-0.140625 -0.625 -0.140625 -1.96875l0 -7.71875l2.109375 0l0 6.90625q0 1.65625 0.140625 2.234375q0.1875 0.828125 0.828125 1.3125q0.65625 0.46875 1.609375 0.46875q0.9375 0 1.765625 -0.484375q0.84375 -0.5 1.1875 -1.328125q0.34375 -0.84375 0.34375 -2.4375l0 -6.671875l2.109375 0l0 12.453125l-1.890625 0zm7.1445312 0l-1.953125 0l0 -17.1875l2.109375 0l0 6.140625q1.328125 -1.6875 3.40625 -1.6875q1.140625 0 2.171875 0.46875q1.03125 0.46875 1.6875 1.3125q0.65625 0.828125 1.03125 2.015625q0.375 1.171875 0.375 2.53125q0 3.1875 -1.578125 4.9375q-1.578125 1.75 -3.796875 1.75q-2.203125 0 -3.453125 -1.84375l0 1.5625zm-0.03125 -6.3125q0 2.234375 0.609375 3.234375q1.0 1.625 2.703125 1.625q1.375 0 2.375 -1.203125q1.015625 -1.203125 1.015625 -3.578125q0 -2.4375 -0.96875 -3.59375q-0.953125 -1.171875 -2.328125 -1.171875q-1.390625 0 -2.40625 1.203125q-1.0 1.203125 -1.0 3.484375z" fill-rule="nonzero"></path><path fill="#00ff00" d="m148.54593 153.94226l179.10498 0l0 80.38844l-179.10498 0z" fill-rule="nonzero"></path><path stroke="#000000" stroke-width="1.0" stroke-linejoin="round" stroke-linecap="butt" d="m148.54593 153.94226l179.10498 0l0 80.38844l-179.10498 0z" fill-rule="nonzero"></path><path fill="#000000" d="m196.51639 202.67648l0 -17.1875l6.4375 0q1.96875 0 3.15625 0.53125q1.1875 0.515625 1.859375 1.609375q0.6875 1.078125 0.6875 2.265625q0 1.09375 -0.609375 2.078125q-0.59375 0.96875 -1.796875 1.5625q1.5625 0.453125 2.390625 1.5625q0.84375 1.09375 0.84375 2.59375q0 1.203125 -0.515625 2.25q-0.5 1.03125 -1.25 1.59375q-0.75 0.5625 -1.890625 0.859375q-1.125 0.28125 -2.765625 0.28125l-6.546875 0zm2.265625 -9.96875l3.71875 0q1.515625 0 2.171875 -0.1875q0.859375 -0.265625 1.296875 -0.859375q0.4375 -0.59375 0.4375 -1.5q0 -0.859375 -0.40625 -1.5q-0.40625 -0.65625 -1.171875 -0.890625q-0.765625 -0.25 -2.609375 -0.25l-3.4375 0l0 5.1875zm0 7.9375l4.28125 0q1.09375 0 1.546875 -0.078125q0.78125 -0.140625 1.3125 -0.46875q0.53125 -0.328125 0.859375 -0.953125q0.34375 -0.625 0.34375 -1.453125q0 -0.953125 -0.5 -1.65625q-0.484375 -0.71875 -1.359375 -1.0q-0.875 -0.296875 -2.515625 -0.296875l-3.96875 0l0 5.90625zm13.8828125 2.03125l0 -17.1875l12.421875 0l0 2.03125l-10.15625 0l0 5.265625l9.5 0l0 2.015625l-9.5 0l0 5.84375l10.546875 0l0 2.03125l-12.8125 0zm15.8671875 0l0 -17.1875l2.265625 0l0 15.15625l8.46875 0l0 2.03125l-10.734375 0zm13.363281 0l0 -17.1875l3.421875 0l4.0625 12.171875q0.5625 1.703125 0.828125 2.546875q0.296875 -0.9375 0.90625 -2.765625l4.125 -11.953125l3.046875 0l0 17.1875l-2.1875 0l0 -14.375l-4.984375 14.375l-2.0625 0l-4.96875 -14.625l0 14.625l-2.1875 0zm19.414062 1.03125l2.046875 0.3125q0.125 0.9375 0.71875 1.375q0.78125 0.59375 2.140625 0.59375q1.46875 0 2.265625 -0.59375q0.796875 -0.578125 1.078125 -1.640625q0.15625 -0.640625 0.140625 -2.703125q-1.375 1.625 -3.4375 1.625q-2.5625 0 -3.96875 -1.84375q-1.40625 -1.859375 -1.40625 -4.453125q0 -1.78125 0.640625 -3.28125q0.640625 -1.515625 1.859375 -2.328125q1.234375 -0.828125 2.890625 -0.828125q2.203125 0 3.625 1.78125l0 -1.5l1.953125 0l0 10.765625q0 2.90625 -0.59375 4.109375q-0.59375 1.21875 -1.875 1.921875q-1.28125 0.703125 -3.15625 0.703125q-2.234375 0 -3.609375 -1.0q-1.359375 -1.0 -1.3125 -3.015625zm1.734375 -7.484375q0 2.453125 0.96875 3.578125q0.984375 1.125 2.453125 1.125q1.453125 0 2.4375 -1.109375q0.984375 -1.125 0.984375 -3.515625q0 -2.28125 -1.015625 -3.4375q-1.015625 -1.171875 -2.453125 -1.171875q-1.40625 0 -2.390625 1.140625q-0.984375 1.140625 -0.984375 3.390625zm11.972656 6.453125l0 -12.453125l1.890625 0l0 1.890625q0.734375 -1.328125 1.34375 -1.75q0.625 -0.421875 1.359375 -0.421875q1.0625 0 2.171875 0.6875l-0.734375 1.953125q-0.765625 -0.453125 -1.546875 -0.453125q-0.6875 0 -1.25 0.421875q-0.546875 0.40625 -0.78125 1.140625q-0.34375 1.125 -0.34375 2.46875l0 6.515625l-2.109375 0z" fill-rule="nonzero"></path><path fill="#000000" fill-opacity="0.0" d="m41.942257 96.11024l0 527.77954" fill-rule="nonzero"></path><path stroke="#000000" stroke-width="8.0" stroke-linejoin="round" stroke-linecap="butt" d="m41.942257 96.11024l0 479.77954" fill-rule="evenodd"></path><path fill="#000000" stroke="#000000" stroke-width="8.0" stroke-linecap="butt" d="m28.728397 575.8898l13.21386 36.30475l13.21386 -36.30475z" fill-rule="evenodd"></path><path fill="#000000" fill-opacity="0.0" d="m41.942257 510.7244l0 -301.4488l32.47244 0l0 301.4488z" fill-rule="nonzero"></path><path fill="#000000" d="m68.86226 500.25565l-13.593754 0l0 -4.6875q0 -1.578125 0.1875 -2.421875q0.265625 -1.15625 0.96875 -1.984375q0.921875 -1.078125 2.34375 -1.609375q1.40625 -0.53125 3.21875 -0.53125q1.546875 0 2.7500038 0.359375q1.1875 0.359375 1.984375 0.921875q0.78125 0.5625 1.234375 1.234375q0.4375 0.671875 0.671875 1.625q0.234375 0.953125 0.234375 2.1875l0 4.90625zm-1.609375 -1.796875l0 -2.90625q0 -1.34375 -0.25 -2.109375q-0.25 -0.765625 -0.703125 -1.21875q-0.640625 -0.640625 -1.71875 -1.0q-1.0781288 -0.359375 -2.6250038 -0.359375q-2.125 0 -3.265625 0.703125q-1.15625 0.703125 -1.546875 1.703125q-0.28125 0.71875 -0.28125 2.328125l0 2.859375l10.390629 0zm-1.5625 -18.207306l0.21875 -1.71875q1.5 0.40625 2.34375 1.515625q0.828125 1.09375 0.828125 2.8125q0 2.15625 -1.328125 3.421875q-1.328125 1.265625 -3.734375 1.265625q-2.4843788 0 -3.8593788 -1.265625q-1.375 -1.28125 -1.375 -3.328125q0 -1.984375 1.34375 -3.234375q1.34375 -1.25 3.796875 -1.25q0.14062881 0 0.4375038 0.015625l0 7.34375q1.625 -0.09375 2.484375 -0.921875q0.859375 -0.828125 0.859375 -2.0625q0 -0.90625 -0.46875 -1.546875q-0.484375 -0.65625 -1.546875 -1.046875zm-2.7031288 5.484375l0 -5.5q-1.234375 0.109375 -1.859375 0.625q-0.96875 0.796875 -0.96875 2.078125q0 1.140625 0.78125 1.9375q0.765625 0.78125 2.046875 0.859375zm9.656254 -9.110107l-13.640629 0l0 -1.53125l1.28125 0q-0.75 -0.53125 -1.125 -1.203125q-0.375 -0.6875 -0.375 -1.640625q0 -1.265625 0.65625 -2.234375q0.640625 -0.96875 1.828125 -1.453125q1.1875 -0.5 2.59375 -0.5q1.5156288 0 2.7343788 0.546875q1.203125 0.546875 1.84375 1.578125q0.640625 1.03125 0.640625 2.171875q0 0.84375 -0.34375 1.515625q-0.359375 0.65625 -0.890625 1.078125l4.796875 0l0 1.671875zm-8.656254 -1.515625q1.9062538 0 2.8125038 -0.765625q0.90625 -0.78125 0.90625 -1.875q0 -1.109375 -0.9375 -1.890625q-0.9375 -0.796875 -2.9218788 -0.796875q-1.875 0 -2.8125 0.78125q-0.9375 0.765625 -0.9375 1.84375q0 1.0625 1.0 1.890625q1.0 0.8125 2.890625 0.8125zm1.7031288 -15.610077l0.21875 -1.71875q1.5 0.40625 2.34375 1.515625q0.828125 1.09375 0.828125 2.8125q0 2.15625 -1.328125 3.421875q-1.328125 1.265625 -3.734375 1.265625q-2.4843788 0 -3.8593788 -1.265625q-1.375 -1.28125 -1.375 -3.328125q0 -1.984375 1.34375 -3.234375q1.34375 -1.25 3.796875 -1.25q0.14062881 0 0.4375038 0.015625l0 7.34375q1.625 -0.09375 2.484375 -0.921875q0.859375 -0.828125 0.859375 -2.0625q0 -0.90625 -0.46875 -1.546875q-0.484375 -0.65625 -1.546875 -1.046875zm-2.7031288 5.484375l0 -5.5q-1.234375 0.109375 -1.859375 0.625q-0.96875 0.796875 -0.96875 2.078125q0 1.140625 0.78125 1.9375q0.765625 0.78125 2.046875 0.859375zm5.875004 -9.110107l-9.859379 0l0 -1.5l1.40625 0q-1.625 -1.09375 -1.625 -3.140625q0 -0.890625 0.328125 -1.640625q0.3125 -0.75 0.84375 -1.109375q0.515625 -0.375 1.21875 -0.53125q0.46875 -0.09375 1.625 -0.09375l6.062504 0l0 1.671875l-6.000004 0q-1.015625 0 -1.515625 0.203125q-0.515625 0.1875 -0.8125 0.6875q-0.296875 0.5 -0.296875 1.171875q0 1.0625 0.671875 1.84375q0.671875 0.765625 2.578125 0.765625l5.375004 0l0 1.671875zm0 -16.766327l-1.25 0q1.46875 0.9375 1.46875 2.75q0 1.171875 -0.640625 2.171875q-0.65625 0.984375 -1.8125 1.53125q-1.171875 0.53125 -2.6875038 0.53125q-1.46875 0 -2.671875 -0.484375q-1.203125 -0.5 -1.84375 -1.46875q-0.640625 -0.984375 -0.640625 -2.203125q0 -0.890625 0.375 -1.578125q0.375 -0.703125 0.984375 -1.140625l-4.875 0l0 -1.65625l13.593754 0l0 1.546875zm-4.921879 5.28125q1.8906288 0 2.8281288 -0.796875q0.9375 -0.8125 0.9375 -1.890625q0 -1.09375 -0.890625 -1.859375q-0.890625 -0.765625 -2.734375 -0.765625q-2.0156288 0 -2.9531288 0.78125q-0.953125 0.78125 -0.953125 1.921875q0 1.109375 0.90625 1.859375q0.90625 0.75 2.859375 0.75zm1.7500038 -16.016357l0.21875 -1.71875q1.5 0.40625 2.34375 1.515625q0.828125 1.09375 0.828125 2.8125q0 2.15625 -1.328125 3.421875q-1.328125 1.265625 -3.734375 1.265625q-2.4843788 0 -3.8593788 -1.265625q-1.375 -1.28125 -1.375 -3.328125q0 -1.984375 1.34375 -3.234375q1.34375 -1.25 3.796875 -1.25q0.14062881 0 0.4375038 0.015625l0 7.34375q1.625 -0.09375 2.484375 -0.921875q0.859375 -0.828125 0.859375 -2.0625q0 -0.90625 -0.46875 -1.546875q-0.484375 -0.65625 -1.546875 -1.046875zm-2.7031288 5.484375l0 -5.5q-1.234375 0.109375 -1.859375 0.625q-0.96875 0.796875 -0.96875 2.078125q0 1.140625 0.78125 1.9375q0.765625 0.78125 2.046875 0.859375zm5.875004 -9.110077l-9.859379 0l0 -1.5l1.40625 0q-1.625 -1.09375 -1.625 -3.140625q0 -0.890625 0.328125 -1.640625q0.3125 -0.75 0.84375 -1.109375q0.515625 -0.375 1.21875 -0.53125q0.46875 -0.09375 1.625 -0.09375l6.062504 0l0 1.671875l-6.000004 0q-1.015625 0 -1.515625 0.203125q-0.515625 0.1875 -0.8125 0.6875q-0.296875 0.5 -0.296875 1.171875q0 1.0625 0.671875 1.84375q0.671875 0.765625 2.578125 0.765625l5.375004 0l0 1.671875zm-3.609375 -16.813232l0.21875 -1.640625q1.6875 0.265625 2.65625 1.375q0.953125 1.109375 0.953125 2.734375q0 2.015625 -1.3125 3.25q-1.328125 1.21875 -3.7968788 1.21875q-1.59375 0 -2.78125 -0.515625q-1.203125 -0.53125 -1.796875 -1.609375q-0.609375 -1.09375 -0.609375 -2.359375q0 -1.609375 0.8125 -2.625q0.8125 -1.015625 2.3125 -1.3125l0.25 1.625q-1.0 0.234375 -1.5 0.828125q-0.5 0.59375 -0.5 1.421875q0 1.265625 0.90625 2.0625q0.90625 0.78125 2.859375 0.78125q1.9843788 0 2.8906288 -0.765625q0.890625 -0.765625 0.890625 -1.984375q0 -0.984375 -0.59375 -1.640625q-0.609375 -0.65625 -1.859375 -0.84375zm-8.078129 -2.90625l-1.90625 0l0 -1.671875l1.90625 0l0 1.671875zm11.687504 0l-9.859379 0l0 -1.671875l9.859379 0l0 1.671875zm-3.171875 -10.879181l0.21875 -1.71875q1.5 0.40625 2.34375 1.515625q0.828125 1.09375 0.828125 2.8125q0 2.15625 -1.328125 3.421875q-1.328125 1.265625 -3.734375 1.265625q-2.4843788 0 -3.8593788 -1.265625q-1.375 -1.28125 -1.375 -3.328125q0 -1.984375 1.34375 -3.234375q1.34375 -1.25 3.796875 -1.25q0.14062881 0 0.4375038 0.015625l0 7.34375q1.625 -0.09375 2.484375 -0.921875q0.859375 -0.828125 0.859375 -2.0625q0 -0.90625 -0.46875 -1.546875q-0.484375 -0.65625 -1.546875 -1.046875zm-2.7031288 5.484375l0 -5.5q-1.234375 0.109375 -1.859375 0.625q-0.96875 0.796875 -0.96875 2.078125q0 1.140625 0.78125 1.9375q0.765625 0.78125 2.046875 0.859375zm2.9375038 -8.438232l-0.265625 -1.65625q1.0 -0.140625 1.53125 -0.765625q0.515625 -0.640625 0.515625 -1.78125q0 -1.15625 -0.46875 -1.703125q-0.46875 -0.5625 -1.09375 -0.5625q-0.5625 0 -0.890625 0.484375q-0.21875 0.34375 -0.5625 1.703125q-0.46875 1.84375 -0.7968788 2.5625q-0.34375 0.703125 -0.9375 1.078125q-0.609375 0.359375 -1.328125 0.359375q-0.65625 0 -1.21875 -0.296875q-0.5625 -0.3125 -0.9375 -0.828125q-0.28125 -0.390625 -0.484375 -1.0625q-0.203125 -0.671875 -0.203125 -1.4375q0 -1.171875 0.34375 -2.046875q0.328125 -0.875 0.90625 -1.28125q0.5625 -0.421875 1.515625 -0.578125l0.21875 1.625q-0.75 0.109375 -1.171875 0.65625q-0.4375 0.53125 -0.4375 1.5q0 1.15625 0.390625 1.640625q0.375 0.484375 0.875 0.484375q0.328125 0 0.59375 -0.203125q0.265625 -0.203125 0.4375 -0.640625q0.09375 -0.25 0.4375 -1.46875q0.46875 -1.765625 0.765625 -2.46875q0.296875 -0.703125 0.8750038 -1.09375q0.578125 -0.40625 1.4375 -0.40625q0.828125 0 1.578125 0.484375q0.734375 0.484375 1.140625 1.40625q0.390625 0.921875 0.390625 2.078125q0 1.921875 -0.796875 2.9375q-0.796875 1.0 -2.359375 1.28125zm2.9375 -15.589539l-8.546879 0l0 1.484375l-1.3125 0l0 -1.484375l-1.046875 0q-0.984375 0 -1.46875 -0.171875q-0.65625 -0.234375 -1.046875 -0.84375q-0.40625 -0.609375 -0.40625 -1.703125q0 -0.703125 0.15625 -1.5625l1.46875 0.25q-0.09375 0.515625 -0.09375 0.984375q0 0.765625 0.328125 1.078125q0.3125 0.3125 1.203125 0.3125l0.90625 0l0 -1.921875l1.3125 0l0 1.921875l8.546879 0l0 1.65625zm0 -4.745819l-13.593754 0l0 -1.671875l13.593754 0l0 1.671875zm-4.921879 -3.551056q-2.734375 0 -4.0625 -1.53125q-1.09375 -1.265625 -1.09375 -3.09375q0 -2.03125 1.34375 -3.3125q1.328125 -1.296875 3.671875 -1.296875q1.9062538 0 3.0000038 0.578125q1.078125 0.5625 1.6875 1.65625q0.59375 1.078125 0.59375 2.375q0 2.0625 -1.328125 3.34375q-1.328125 1.28125 -3.8125038 1.28125zm0 -1.71875q1.8906288 0 2.8281288 -0.828125q0.9375 -0.828125 0.9375 -2.078125q0 -1.25 -0.9375 -2.0625q-0.953125 -0.828125 -2.8906288 -0.828125q-1.828125 0 -2.765625 0.828125q-0.9375 0.828125 -0.9375 2.0625q0 1.25 0.9375 2.078125q0.9375 0.828125 2.828125 0.828125zm4.921879 -11.110107l-9.859379 3.015625l0 -1.71875l5.687504 -1.5625l2.125 -0.59375q-0.15625 -0.03125 -2.03125 -0.5l-5.781254 -1.578125l0 -1.71875l5.718754 -1.46875l1.890625 -0.484375l-1.90625 -0.578125l-5.703129 -1.6875l0 -1.625l9.859379 3.078125l0 1.734375l-5.906254 1.578125l-1.671875 0.375l7.578129 2.0l0 1.734375zm0 -23.21875l-1.25 0q1.46875 0.9375 1.46875 2.75q0 1.171875 -0.640625 2.171875q-0.65625 0.984375 -1.8125 1.53125q-1.171875 0.53125 -2.6875038 0.53125q-1.46875 0 -2.671875 -0.484375q-1.203125 -0.5 -1.84375 -1.46875q-0.640625 -0.984375 -0.640625 -2.203125q0 -0.890625 0.375 -1.578125q0.375 -0.703125 0.984375 -1.140625l-4.875 0l0 -1.65625l13.593754 0l0 1.546875zm-4.921879 5.28125q1.8906288 0 2.8281288 -0.796875q0.9375 -0.8125 0.9375 -1.890625q0 -1.09375 -0.890625 -1.859375q-0.890625 -0.765625 -2.734375 -0.765625q-2.0156288 0 -2.9531288 0.78125q-0.953125 0.78125 -0.953125 1.921875q0 1.109375 0.90625 1.859375q0.90625 0.75 2.859375 0.75zm0 -8.641327q-2.734375 0 -4.0625 -1.53125q-1.09375 -1.265625 -1.09375 -3.09375q0 -2.03125 1.34375 -3.3125q1.328125 -1.296875 3.671875 -1.296875q1.9062538 0 3.0000038 0.578125q1.078125 0.5625 1.6875 1.65625q0.59375 1.078125 0.59375 2.375q0 2.0625 -1.328125 3.34375q-1.328125 1.28125 -3.8125038 1.28125zm0 -1.71875q1.8906288 0 2.8281288 -0.828125q0.9375 -0.828125 0.9375 -2.078125q0 -1.25 -0.9375 -2.0625q-0.953125 -0.828125 -2.8906288 -0.828125q-1.828125 0 -2.765625 0.828125q-0.9375 0.828125 -0.9375 2.0625q0 1.25 0.9375 2.078125q0.9375 0.828125 2.828125 0.828125zm4.921879 -11.110107l-9.859379 3.015625l0 -1.71875l5.687504 -1.5625l2.125 -0.59375q-0.15625 -0.03125 -2.03125 -0.5l-5.781254 -1.578125l0 -1.71875l5.718754 -1.46875l1.890625 -0.484375l-1.90625 -0.578125l-5.703129 -1.6875l0 -1.625l9.859379 3.078125l0 1.734375l-5.906254 1.578125l-1.671875 0.375l7.578129 2.0l0 1.734375zm0 -11.644806l-9.859379 0l0 -1.5l1.40625 0q-1.625 -1.09375 -1.625 -3.140625q0 -0.890625 0.328125 -1.640625q0.3125 -0.75 0.84375 -1.109375q0.515625 -0.375 1.21875 -0.53125q0.46875 -0.09375 1.625 -0.09375l6.062504 0l0 1.671875l-6.000004 0q-1.015625 0 -1.515625 0.203125q-0.515625 0.1875 -0.8125 0.6875q-0.296875 0.5 -0.296875 1.171875q0 1.0625 0.671875 1.84375q0.671875 0.765625 2.578125 0.765625l5.375004 0l0 1.671875zm0 -12.203857l-9.859379 3.015625l0 -1.71875l5.687504 -1.5625l2.125 -0.59375q-0.15625 -0.03125 -2.03125 -0.5l-5.781254 -1.578125l0 -1.71875l5.718754 -1.46875l1.890625 -0.484375l-1.90625 -0.578125l-5.703129 -1.6875l0 -1.625l9.859379 3.078125l0 1.734375l-5.906254 1.578125l-1.671875 0.375l7.578129 2.0l0 1.734375zm-1.21875 -18.082306q0.796875 0.9375 1.125 1.796875q0.3125 0.859375 0.3125 1.84375q0 1.609375 -0.78125 2.484375q-0.796875 0.875 -2.03125 0.875q-0.734375 0 -1.328125 -0.328125q-0.59375 -0.328125 -0.9531288 -0.859375q-0.359375 -0.53125 -0.546875 -1.203125q-0.140625 -0.5 -0.25 -1.484375q-0.25 -2.03125 -0.578125 -2.984375q-0.34375 0 -0.4375 0q-1.015625 0 -1.4375 0.46875q-0.5625 0.640625 -0.5625 1.90625q0 1.171875 0.40625 1.734375q0.40625 0.5625 1.46875 0.828125l-0.234375 1.640625q-1.046875 -0.234375 -1.6875 -0.734375q-0.640625 -0.515625 -0.984375 -1.46875q-0.359375 -0.96875 -0.359375 -2.25q0 -1.265625 0.296875 -2.046875q0.296875 -0.78125 0.75 -1.15625q0.453125 -0.375 1.140625 -0.515625q0.421875 -0.09375 1.53125 -0.09375l2.2343788 0q2.328125 0 2.953125 -0.09375q0.609375 -0.109375 1.171875 -0.4375l0 1.75q-0.515625 0.265625 -1.21875 0.328125zm-3.7187538 0.140625q0.3593788 0.90625 0.6250038 2.734375q0.140625 1.03125 0.328125 1.453125q0.1875 0.421875 0.546875 0.65625q0.359375 0.234375 0.796875 0.234375q0.671875 0 1.125 -0.5q0.4375 -0.515625 0.4375 -1.484375q0 -0.96875 -0.421875 -1.71875q-0.4375 -0.75 -1.15625 -1.109375q-0.578125 -0.265625 -1.671875 -0.265625l-0.6093788 0zm4.937504 -4.0632324l-9.859379 0l0 -1.5l1.5 0q-1.046875 -0.578125 -1.375 -1.0625q-0.34375 -0.484375 -0.34375 -1.078125q0 -0.84375 0.546875 -1.71875l1.546875 0.578125q-0.359375 0.609375 -0.359375 1.234375q0 0.546875 0.328125 0.984375q0.328125 0.421875 0.90625 0.609375q0.890625 0.28125 1.953125 0.28125l5.156254 0l0 1.671875zm0 -12.618927l-1.25 0q1.46875 0.9375 1.46875 2.75q0 1.171875 -0.640625 2.171875q-0.65625 0.984375 -1.8125 1.53125q-1.171875 0.53125 -2.6875038 0.53125q-1.46875 0 -2.671875 -0.484375q-1.203125 -0.5 -1.84375 -1.46875q-0.640625 -0.984375 -0.640625 -2.203125q0 -0.890625 0.375 -1.578125q0.375 -0.703125 0.984375 -1.140625l-4.875 0l0 -1.6562347l13.593754 0l0 1.5468597zm-4.921879 5.28125q1.8906288 0 2.8281288 -0.796875q0.9375 -0.8125 0.9375 -1.890625q0 -1.09375 -0.890625 -1.859375q-0.890625 -0.765625 -2.734375 -0.765625q-2.0156288 0 -2.9531288 0.78125q-0.953125 0.78125 -0.953125 1.921875q0 1.109375 0.90625 1.859375q0.90625 0.75 2.859375 0.75z" fill-rule="nonzero"></path><path fill="#00ff00" d="m390.44882 153.94226l179.10501 0l0 80.38844l-179.10501 0z" fill-rule="nonzero"></path><path stroke="#000000" stroke-width="1.0" stroke-linejoin="round" stroke-linecap="butt" d="m390.44882 153.94226l179.10501 0l0 80.38844l-179.10501 0z" fill-rule="nonzero"></path><path fill="#000000" d="m457.0931 188.17648l0 -17.1875l6.4375 0q1.96875 0 3.15625 0.53125q1.1875 0.515625 1.859375 1.609375q0.6875 1.078125 0.6875 2.265625q0 1.09375 -0.609375 2.078125q-0.59375 0.96875 -1.796875 1.5625q1.5625 0.453125 2.390625 1.5625q0.84375 1.09375 0.84375 2.59375q0 1.203125 -0.515625 2.25q-0.5 1.03125 -1.25 1.59375q-0.75 0.5625 -1.890625 0.859375q-1.125 0.28125 -2.765625 0.28125l-6.546875 0zm2.265625 -9.96875l3.71875 0q1.515625 0 2.171875 -0.1875q0.859375 -0.265625 1.296875 -0.859375q0.4375 -0.59375 0.4375 -1.5q0 -0.859375 -0.40625 -1.5q-0.40625 -0.65625 -1.171875 -0.890625q-0.765625 -0.25 -2.609375 -0.25l-3.4375 0l0 5.1875zm0 7.9375l4.28125 0q1.09375 0 1.546875 -0.078125q0.78125 -0.140625 1.3125 -0.46875q0.53125 -0.328125 0.859375 -0.953125q0.34375 -0.625 0.34375 -1.453125q0 -0.953125 -0.5 -1.65625q-0.484375 -0.71875 -1.359375 -1.0q-0.875 -0.296875 -2.515625 -0.296875l-3.96875 0l0 5.90625zm13.7421875 2.03125l0 -17.1875l2.265625 0l0 8.53125l8.53125 -8.53125l3.078125 0l-7.203125 6.96875l7.53125 10.21875l-3.0 0l-6.125 -8.703125l-2.8125 2.75l0 5.953125l-2.265625 0zm16.070312 0l0 -17.1875l2.328125 0l9.03125 13.5l0 -13.5l2.171875 0l0 17.1875l-2.328125 0l-9.015625 -13.5l0 13.5l-2.1875 0z" fill-rule="nonzero"></path><path fill="#000000" d="m419.39584 217.17648l-6.65625 -17.1875l2.453125 0l4.46875 12.484375q0.546875 1.5 0.90625 2.8125q0.390625 -1.40625 0.921875 -2.8125l4.640625 -12.484375l2.328125 0l-6.734375 17.1875l-2.328125 0zm10.8359375 -14.75l0 -2.4375l2.109375 0l0 2.4375l-2.109375 0zm0 14.75l0 -12.453125l2.109375 0l0 12.453125l-2.109375 0zm4.4726562 -3.71875l2.09375 -0.328125q0.171875 1.25 0.96875 1.921875q0.8125 0.671875 2.25 0.671875q1.453125 0 2.15625 -0.59375q0.703125 -0.59375 0.703125 -1.390625q0 -0.71875 -0.625 -1.125q-0.421875 -0.28125 -2.15625 -0.71875q-2.3125 -0.578125 -3.21875 -1.0q-0.890625 -0.4375 -1.359375 -1.1875q-0.453125 -0.765625 -0.453125 -1.671875q0 -0.828125 0.375 -1.53125q0.390625 -0.71875 1.046875 -1.1875q0.484375 -0.359375 1.328125 -0.609375q0.859375 -0.265625 1.828125 -0.265625q1.46875 0 2.578125 0.421875q1.109375 0.421875 1.625 1.15625q0.53125 0.71875 0.734375 1.921875l-2.0625 0.28125q-0.140625 -0.96875 -0.8125 -1.5q-0.671875 -0.546875 -1.90625 -0.546875q-1.453125 0 -2.078125 0.484375q-0.625 0.484375 -0.625 1.125q0 0.40625 0.265625 0.734375q0.25 0.34375 0.8125 0.5625q0.3125 0.125 1.859375 0.546875q2.234375 0.59375 3.109375 0.984375q0.890625 0.375 1.390625 1.109375q0.515625 0.71875 0.515625 1.796875q0 1.046875 -0.625 1.984375q-0.609375 0.9375 -1.765625 1.453125q-1.15625 0.5 -2.625 0.5q-2.421875 0 -3.703125 -1.0q-1.265625 -1.015625 -1.625 -3.0zm21.0 3.71875l0 -1.828125q-1.453125 2.109375 -3.9375 2.109375q-1.109375 0 -2.0625 -0.421875q-0.953125 -0.421875 -1.421875 -1.0625q-0.453125 -0.640625 -0.640625 -1.5625q-0.140625 -0.625 -0.140625 -1.96875l0 -7.71875l2.109375 0l0 6.90625q0 1.65625 0.140625 2.234375q0.1875 0.828125 0.828125 1.3125q0.65625 0.46875 1.609375 0.46875q0.9375 0 1.765625 -0.484375q0.84375 -0.5 1.1875 -1.328125q0.34375 -0.84375 0.34375 -2.4375l0 -6.671875l2.109375 0l0 12.453125l-1.890625 0zm13.316406 -1.53125q-1.171875 0.984375 -2.265625 1.40625q-1.078125 0.40625 -2.3125 0.40625q-2.046875 0 -3.15625 -1.0q-1.09375 -1.0 -1.09375 -2.5625q0 -0.921875 0.40625 -1.671875q0.421875 -0.75 1.09375 -1.203125q0.671875 -0.46875 1.515625 -0.703125q0.625 -0.15625 1.875 -0.3125q2.5625 -0.3125 3.765625 -0.734375q0.015625 -0.421875 0.015625 -0.546875q0 -1.28125 -0.609375 -1.8125q-0.796875 -0.71875 -2.390625 -0.71875q-1.5 0 -2.203125 0.53125q-0.703125 0.515625 -1.046875 1.84375l-2.0625 -0.28125q0.28125 -1.328125 0.921875 -2.140625q0.640625 -0.8125 1.859375 -1.25q1.21875 -0.453125 2.828125 -0.453125q1.59375 0 2.59375 0.375q1.0 0.375 1.46875 0.953125q0.46875 0.5625 0.65625 1.4375q0.09375 0.53125 0.09375 1.9375l0 2.8125q0 2.9375 0.140625 3.71875q0.140625 0.78125 0.53125 1.5l-2.203125 0q-0.328125 -0.65625 -0.421875 -1.53125zm-0.171875 -4.71875q-1.15625 0.46875 -3.453125 0.796875q-1.296875 0.1875 -1.84375 0.421875q-0.53125 0.234375 -0.828125 0.6875q-0.28125 0.453125 -0.28125 1.0q0 0.84375 0.625 1.40625q0.640625 0.5625 1.875 0.5625q1.21875 0 2.171875 -0.53125q0.953125 -0.53125 1.390625 -1.453125q0.34375 -0.71875 0.34375 -2.109375l0 -0.78125zm5.3476562 6.25l0 -17.1875l2.109375 0l0 17.1875l-2.109375 0zm5.3945312 -14.75l0 -2.4375l2.109375 0l0 2.4375l-2.109375 0zm0 14.75l0 -12.453125l2.109375 0l0 12.453125l-2.109375 0zm4.2070312 0l0 -1.71875l7.921875 -9.09375q-1.34375 0.078125 -2.375 0.078125l-5.078125 0l0 -1.71875l10.171875 0l0 1.40625l-6.734375 7.890625l-1.296875 1.4375q1.40625 -0.09375 2.65625 -0.09375l5.75 0l0 1.8125l-11.015625 0zm21.234375 -1.53125q-1.171875 0.984375 -2.265625 1.40625q-1.078125 0.40625 -2.3125 0.40625q-2.046875 0 -3.15625 -1.0q-1.09375 -1.0 -1.09375 -2.5625q0 -0.921875 0.40625 -1.671875q0.421875 -0.75 1.09375 -1.203125q0.671875 -0.46875 1.515625 -0.703125q0.625 -0.15625 1.875 -0.3125q2.5625 -0.3125 3.765625 -0.734375q0.015625 -0.421875 0.015625 -0.546875q0 -1.28125 -0.609375 -1.8125q-0.796875 -0.71875 -2.390625 -0.71875q-1.5 0 -2.203125 0.53125q-0.703125 0.515625 -1.046875 1.84375l-2.0625 -0.28125q0.28125 -1.328125 0.921875 -2.140625q0.640625 -0.8125 1.859375 -1.25q1.21875 -0.453125 2.828125 -0.453125q1.59375 0 2.59375 0.375q1.0 0.375 1.46875 0.953125q0.46875 0.5625 0.65625 1.4375q0.09375 0.53125 0.09375 1.9375l0 2.8125q0 2.9375 0.140625 3.71875q0.140625 0.78125 0.53125 1.5l-2.203125 0q-0.328125 -0.65625 -0.421875 -1.53125zm-0.171875 -4.71875q-1.15625 0.46875 -3.453125 0.796875q-1.296875 0.1875 -1.84375 0.421875q-0.53125 0.234375 -0.828125 0.6875q-0.28125 0.453125 -0.28125 1.0q0 0.84375 0.625 1.40625q0.640625 0.5625 1.875 0.5625q1.21875 0 2.171875 -0.53125q0.953125 -0.53125 1.390625 -1.453125q0.34375 -0.71875 0.34375 -2.109375l0 -0.78125zm10.003876 4.359375l0.3125 1.859375q-0.890625 0.203125 -1.59375 0.203125q-1.15625 0 -1.7968445 -0.359375q-0.625 -0.375 -0.890625 -0.96875q-0.25 -0.59375 -0.25 -2.484375l0 -7.171875l-1.546875 0l0 -1.640625l1.546875 0l0 -3.078125l2.0937195 -1.265625l0 4.34375l2.125 0l0 1.640625l-2.125 0l0 7.28125q0 0.90625 0.109375 1.171875q0.125 0.25 0.375 0.40625q0.25 0.140625 0.71875 0.140625q0.34375 0 0.921875 -0.078125zm2.0742188 -12.859375l0 -2.4375l2.109375 0l0 2.4375l-2.109375 0zm0 14.75l0 -12.453125l2.109375 0l0 12.453125l-2.109375 0zm4.5351562 -6.21875q0 -3.46875 1.921875 -5.125q1.609375 -1.390625 3.921875 -1.390625q2.5625 0 4.1875 1.6875q1.625 1.6875 1.625 4.640625q0 2.40625 -0.71875 3.78125q-0.71875 1.375 -2.09375 2.140625q-1.375 0.765625 -3.0 0.765625q-2.625 0 -4.234375 -1.671875q-1.609375 -1.6875 -1.609375 -4.828125zm2.171875 0q0 2.390625 1.03125 3.578125q1.046875 1.1875 2.640625 1.1875q1.5625 0 2.609375 -1.1875q1.046875 -1.203125 1.046875 -3.65625q0 -2.3125 -1.0625 -3.5q-1.046875 -1.1875 -2.59375 -1.1875q-1.59375 0 -2.640625 1.1875q-1.03125 1.1875 -1.03125 3.578125zm11.957031 6.21875l0 -12.453125l1.90625 0l0 1.78125q1.375 -2.0625 3.953125 -2.0625q1.125 0 2.0625 0.40625q0.953125 0.40625 1.421875 1.0625q0.46875 0.65625 0.65625 1.5625q0.125 0.578125 0.125 2.046875l0 7.65625l-2.109375 0l0 -7.578125q0 -1.28125 -0.25 -1.921875q-0.25 -0.640625 -0.875 -1.015625q-0.625 -0.390625 -1.46875 -0.390625q-1.34375 0 -2.328125 0.859375q-0.984375 0.859375 -0.984375 3.25l0 6.796875l-2.109375 0z" fill-rule="nonzero"></path><path fill="#00ff00" d="m632.3517 153.94226l179.10498 0l0 80.38844l-179.10498 0z" fill-rule="nonzero"></path><path stroke="#000000" stroke-width="1.0" stroke-linejoin="round" stroke-linecap="butt" d="m632.3517 153.94226l179.10498 0l0 80.38844l-179.10498 0z" fill-rule="nonzero"></path><path fill="#000000" d="m673.85535 202.67648l6.59375 -17.1875l2.453125 0l7.03125 17.1875l-2.59375 0l-2.0 -5.203125l-7.1875 0l-1.890625 5.203125l-2.40625 0zm4.953125 -7.0625l5.828125 0l-1.796875 -4.75q-0.8125 -2.171875 -1.21875 -3.5625q-0.328125 1.65625 -0.921875 3.28125l-1.890625 5.03125zm12.6640625 7.0625l0 -12.453125l1.90625 0l0 1.78125q1.375 -2.0625 3.953125 -2.0625q1.125 0 2.0625 0.40625q0.953125 0.40625 1.421875 1.0625q0.46875 0.65625 0.65625 1.5625q0.125 0.578125 0.125 2.046875l0 7.65625l-2.109375 0l0 -7.578125q0 -1.28125 -0.25 -1.921875q-0.25 -0.640625 -0.875 -1.015625q-0.625 -0.390625 -1.46875 -0.390625q-1.34375 0 -2.328125 0.859375q-0.984375 0.859375 -0.984375 3.25l0 6.796875l-2.109375 0zm21.472656 -1.53125q-1.171875 0.984375 -2.265625 1.40625q-1.078125 0.40625 -2.3125 0.40625q-2.046875 0 -3.15625 -1.0q-1.09375 -1.0 -1.09375 -2.5625q0 -0.921875 0.40625 -1.671875q0.421875 -0.75 1.09375 -1.203125q0.671875 -0.46875 1.515625 -0.703125q0.625 -0.15625 1.875 -0.3125q2.5625 -0.3125 3.765625 -0.734375q0.015625 -0.421875 0.015625 -0.546875q0 -1.28125 -0.609375 -1.8125q-0.796875 -0.71875 -2.390625 -0.71875q-1.5 0 -2.203125 0.53125q-0.703125 0.515625 -1.046875 1.84375l-2.0625 -0.28125q0.28125 -1.328125 0.921875 -2.140625q0.640625 -0.8125 1.859375 -1.25q1.21875 -0.453125 2.828125 -0.453125q1.59375 0 2.59375 0.375q1.0 0.375 1.46875 0.953125q0.46875 0.5625 0.65625 1.4375q0.09375 0.53125 0.09375 1.9375l0 2.8125q0 2.9375 0.140625 3.71875q0.140625 0.78125 0.53125 1.5l-2.203125 0q-0.328125 -0.65625 -0.421875 -1.53125zm-0.171875 -4.71875q-1.15625 0.46875 -3.453125 0.796875q-1.296875 0.1875 -1.84375 0.421875q-0.53125 0.234375 -0.828125 0.6875q-0.28125 0.453125 -0.28125 1.0q0 0.84375 0.625 1.40625q0.640625 0.5625 1.875 0.5625q1.21875 0 2.171875 -0.53125q0.953125 -0.53125 1.390625 -1.453125q0.34375 -0.71875 0.34375 -2.109375l0 -0.78125zm5.3476562 6.25l0 -17.1875l2.109375 0l0 17.1875l-2.109375 0zm5.2851562 4.796875l-0.234375 -1.984375q0.703125 0.1875 1.21875 0.1875q0.703125 0 1.125 -0.234375q0.421875 -0.234375 0.6875 -0.65625q0.203125 -0.3125 0.640625 -1.5625q0.0625 -0.1875 0.1875 -0.515625l-4.71875 -12.484375l2.265625 0l2.59375 7.21875q0.5 1.359375 0.90625 2.875q0.359375 -1.453125 0.859375 -2.828125l2.671875 -7.265625l2.109375 0l-4.734375 12.671875q-0.765625 2.046875 -1.1875 2.8125q-0.5625 1.046875 -1.296875 1.53125q-0.71875 0.484375 -1.734375 0.484375q-0.609375 0 -1.359375 -0.25zm16.703125 -6.6875l0.3125 1.859375q-0.890625 0.203125 -1.59375 0.203125q-1.15625 0 -1.796875 -0.359375q-0.625 -0.375 -0.890625 -0.96875q-0.25 -0.59375 -0.25 -2.484375l0 -7.171875l-1.546875 0l0 -1.640625l1.546875 0l0 -3.078125l2.09375 -1.265625l0 4.34375l2.125 0l0 1.640625l-2.125 0l0 7.28125q0 0.90625 0.109375 1.171875q0.125 0.25 0.375 0.40625q0.25 0.140625 0.71875 0.140625q0.34375 0 0.921875 -0.078125zm2.0742188 -12.859375l0 -2.4375l2.109375 0l0 2.4375l-2.109375 0zm0 14.75l0 -12.453125l2.109375 0l0 12.453125l-2.109375 0zm13.441406 -4.5625l2.078125 0.265625q-0.34375 2.15625 -1.75 3.375q-1.390625 1.203125 -3.4375 1.203125q-2.546875 0 -4.109375 -1.671875q-1.546875 -1.671875 -1.546875 -4.78125q0 -2.015625 0.671875 -3.53125q0.671875 -1.515625 2.03125 -2.265625q1.359375 -0.765625 2.96875 -0.765625q2.03125 0 3.3125 1.03125q1.296875 1.03125 1.65625 2.90625l-2.046875 0.328125q-0.296875 -1.265625 -1.046875 -1.890625q-0.734375 -0.640625 -1.796875 -0.640625q-1.59375 0 -2.59375 1.15625q-0.984375 1.140625 -0.984375 3.609375q0 2.5 0.953125 3.640625q0.96875 1.140625 2.515625 1.140625q1.234375 0 2.0625 -0.765625q0.84375 -0.765625 1.0625 -2.34375zm3.03125 0.84375l2.09375 -0.328125q0.171875 1.25 0.96875 1.921875q0.8125 0.671875 2.25 0.671875q1.453125 0 2.15625 -0.59375q0.703125 -0.59375 0.703125 -1.390625q0 -0.71875 -0.625 -1.125q-0.421875 -0.28125 -2.15625 -0.71875q-2.3125 -0.578125 -3.21875 -1.0q-0.890625 -0.4375 -1.359375 -1.1875q-0.453125 -0.765625 -0.453125 -1.671875q0 -0.828125 0.375 -1.53125q0.390625 -0.71875 1.046875 -1.1875q0.484375 -0.359375 1.328125 -0.609375q0.859375 -0.265625 1.828125 -0.265625q1.46875 0 2.578125 0.421875q1.109375 0.421875 1.625 1.15625q0.53125 0.71875 0.734375 1.921875l-2.0625 0.28125q-0.140625 -0.96875 -0.8125 -1.5q-0.671875 -0.546875 -1.90625 -0.546875q-1.453125 0 -2.078125 0.484375q-0.625 0.484375 -0.625 1.125q0 0.40625 0.265625 0.734375q0.25 0.34375 0.8125 0.5625q0.3125 0.125 1.859375 0.546875q2.234375 0.59375 3.109375 0.984375q0.890625 0.375 1.390625 1.109375q0.515625 0.71875 0.515625 1.796875q0 1.046875 -0.625 1.984375q-0.609375 0.9375 -1.765625 1.453125q-1.15625 0.5 -2.625 0.5q-2.421875 0 -3.703125 -1.0q-1.265625 -1.015625 -1.625 -3.0z" fill-rule="nonzero"></path><path fill="#ff9900" d="m154.05905 268.27298l662.91077 0l0 80.38843l-662.91077 0z" fill-rule="nonzero"></path><path stroke="#000000" stroke-width="1.0" stroke-linejoin="round" stroke-linecap="butt" d="m154.05905 268.27298l662.91077 0l0 80.38843l-662.91077 0z" fill-rule="nonzero"></path><path fill="#000000" d="m443.0242 317.0072l-4.5625 -17.1875l2.328125 0l2.609375 11.265625q0.421875 1.765625 0.734375 3.515625q0.65625 -2.75 0.765625 -3.171875l3.28125 -11.609375l2.734375 0l2.46875 8.703125q0.921875 3.234375 1.328125 6.078125q0.328125 -1.625 0.859375 -3.734375l2.6875 -11.046875l2.296875 0l-4.71875 17.1875l-2.1875 0l-3.625 -13.09375q-0.453125 -1.640625 -0.53125 -2.015625q-0.28125 1.1875 -0.515625 2.015625l-3.640625 13.09375l-2.3125 0zm27.902344 -4.015625l2.171875 0.28125q-0.515625 1.90625 -1.90625 2.96875q-1.390625 1.046875 -3.5625 1.046875q-2.734375 0 -4.34375 -1.671875q-1.59375 -1.6875 -1.59375 -4.734375q0 -3.140625 1.609375 -4.875q1.625 -1.734375 4.203125 -1.734375q2.5 0 4.078125 1.703125q1.59375 1.703125 1.59375 4.78125q0 0.1875 -0.015625 0.5625l-9.28125 0q0.109375 2.046875 1.15625 3.140625q1.046875 1.09375 2.609375 1.09375q1.15625 0 1.96875 -0.609375q0.828125 -0.609375 1.3125 -1.953125zm-6.9375 -3.40625l6.953125 0q-0.140625 -1.5625 -0.796875 -2.359375q-1.0 -1.21875 -2.609375 -1.21875q-1.453125 0 -2.453125 0.984375q-0.984375 0.96875 -1.09375 2.59375zm13.707031 7.421875l-1.953125 0l0 -17.1875l2.109375 0l0 6.140625q1.328125 -1.6875 3.40625 -1.6875q1.140625 0 2.171875 0.46875q1.03125 0.46875 1.6875 1.3125q0.65625 0.828125 1.03125 2.015625q0.375 1.171875 0.375 2.53125q0 3.1875 -1.578125 4.9375q-1.578125 1.75 -3.796875 1.75q-2.203125 0 -3.453125 -1.84375l0 1.5625zm-0.03125 -6.3125q0 2.234375 0.609375 3.234375q1.0 1.625 2.703125 1.625q1.375 0 2.375 -1.203125q1.015625 -1.203125 1.015625 -3.578125q0 -2.4375 -0.96875 -3.59375q-0.953125 -1.171875 -2.328125 -1.171875q-1.390625 0 -2.40625 1.203125q-1.0 1.203125 -1.0 3.484375zm16.484375 6.3125l6.59375 -17.1875l2.453125 0l7.03125 17.1875l-2.59375 0l-2.0 -5.203125l-7.1875 0l-1.890625 5.203125l-2.40625 0zm4.953125 -7.0625l5.828125 0l-1.796875 -4.75q-0.8125 -2.171875 -1.21875 -3.5625q-0.328125 1.65625 -0.921875 3.28125l-1.890625 5.03125zm12.945343 7.0625l0 -17.1875l6.46875 0q1.71875 0 2.625 0.171875q1.265625 0.203125 2.109375 0.796875q0.859375 0.59375 1.375 1.671875q0.53125 1.0625 0.53125 2.328125q0 2.203125 -1.40625 3.71875q-1.390625 1.515625 -5.03125 1.515625l-4.40625 0l0 6.984375l-2.265625 0zm2.265625 -9.015625l4.4375 0q2.203125 0 3.125 -0.8125q0.9375 -0.828125 0.9375 -2.3125q0 -1.078125 -0.546875 -1.84375q-0.546875 -0.765625 -1.4375 -1.015625q-0.578125 -0.15625 -2.125 -0.15625l-4.390625 0l0 6.140625zm14.1171875 9.015625l0 -17.1875l2.28125 0l0 17.1875l-2.28125 0z" fill-rule="nonzero"></path><path fill="#00ff00" d="m154.06036 382.60367l148.85303 0l0 80.38846l-148.85303 0z" fill-rule="nonzero"></path><path stroke="#000000" stroke-width="1.0" stroke-linejoin="round" stroke-linecap="butt" d="m154.06036 382.60367l148.85303 0l0 80.38846l-148.85303 0z" fill-rule="nonzero"></path><path fill="#000000" d="m170.8736 416.8379l0 -17.1875l2.265625 0l0 8.53125l8.53125 -8.53125l3.078125 0l-7.203125 6.96875l7.53125 10.21875l-3.0 0l-6.125 -8.703125l-2.8125 2.75l0 5.953125l-2.265625 0zm15.8203125 0l0 -12.453125l1.90625 0l0 1.78125q1.375 -2.0625 3.953125 -2.0625q1.125 0 2.0625 0.40625q0.953125 0.40625 1.421875 1.0625q0.46875 0.65625 0.65625 1.5625q0.125 0.578125 0.125 2.046875l0 7.65625l-2.109375 0l0 -7.578125q0 -1.28125 -0.25 -1.921875q-0.25 -0.640625 -0.875 -1.015625q-0.625 -0.390625 -1.46875 -0.390625q-1.34375 0 -2.328125 0.859375q-0.984375 0.859375 -0.984375 3.25l0 6.796875l-2.109375 0zm12.566406 -6.21875q0 -3.46875 1.921875 -5.125q1.609375 -1.390625 3.921875 -1.390625q2.5625 0 4.1875 1.6875q1.625 1.6875 1.625 4.640625q0 2.40625 -0.71875 3.78125q-0.71875 1.375 -2.09375 2.140625q-1.375 0.765625 -3.0 0.765625q-2.625 0 -4.234375 -1.671875q-1.609375 -1.6875 -1.609375 -4.828125zm2.171875 0q0 2.390625 1.03125 3.578125q1.046875 1.1875 2.640625 1.1875q1.5625 0 2.609375 -1.1875q1.046875 -1.203125 1.046875 -3.65625q0 -2.3125 -1.0625 -3.5q-1.046875 -1.1875 -2.59375 -1.1875q-1.59375 0 -2.640625 1.1875q-1.03125 1.1875 -1.03125 3.578125zm14.253906 6.21875l-3.796875 -12.453125l2.171875 0l1.984375 7.1875l0.734375 2.671875q0.046875 -0.203125 0.640625 -2.5625l1.984375 -7.296875l2.171875 0l1.859375 7.21875l0.625 2.390625l0.71875 -2.40625l2.125 -7.203125l2.046875 0l-3.890625 12.453125l-2.1875 0l-1.984375 -7.453125l-0.46875 -2.125l-2.53125 9.578125l-2.203125 0zm14.988281 0l0 -17.1875l2.109375 0l0 17.1875l-2.109375 0zm13.910156 -4.015625l2.171875 0.28125q-0.515625 1.90625 -1.90625 2.96875q-1.390625 1.046875 -3.5625 1.046875q-2.734375 0 -4.34375 -1.671875q-1.59375 -1.6875 -1.59375 -4.734375q0 -3.140625 1.609375 -4.875q1.625 -1.734375 4.203125 -1.734375q2.5 0 4.078125 1.703125q1.59375 1.703125 1.59375 4.78125q0 0.1875 -0.015625 0.5625l-9.28125 0q0.109375 2.046875 1.15625 3.140625q1.046875 1.09375 2.609375 1.09375q1.15625 0 1.96875 -0.609375q0.828125 -0.609375 1.3125 -1.953125zm-6.9375 -3.40625l6.953125 0q-0.140625 -1.5625 -0.796875 -2.359375q-1.0 -1.21875 -2.609375 -1.21875q-1.453125 0 -2.453125 0.984375q-0.984375 0.96875 -1.09375 2.59375zm19.832031 7.421875l0 -1.578125q-1.1875 1.859375 -3.484375 1.859375q-1.484375 0 -2.734375 -0.8125q-1.25 -0.828125 -1.9375 -2.296875q-0.671875 -1.46875 -0.671875 -3.390625q0 -1.859375 0.609375 -3.375q0.625 -1.515625 1.859375 -2.328125q1.25 -0.8125 2.78125 -0.8125q1.125 0 2.0 0.484375q0.890625 0.46875 1.4375 1.234375l0 -6.171875l2.09375 0l0 17.1875l-1.953125 0zm-6.671875 -6.21875q0 2.390625 1.0 3.578125q1.015625 1.1875 2.390625 1.1875q1.390625 0 2.34375 -1.125q0.96875 -1.140625 0.96875 -3.453125q0 -2.5625 -0.984375 -3.75q-0.984375 -1.203125 -2.421875 -1.203125q-1.40625 0 -2.359375 1.15625q-0.9375 1.140625 -0.9375 3.609375zm11.566406 7.25l2.046875 0.3125q0.125 0.9375 0.71875 1.375q0.78125 0.59375 2.140625 0.59375q1.46875 0 2.265625 -0.59375q0.796875 -0.578125 1.078125 -1.640625q0.15625 -0.640625 0.140625 -2.703125q-1.375 1.625 -3.4375 1.625q-2.5625 0 -3.96875 -1.84375q-1.40625 -1.859375 -1.40625 -4.453125q0 -1.78125 0.640625 -3.28125q0.640625 -1.515625 1.859375 -2.328125q1.234375 -0.828125 2.890625 -0.828125q2.203125 0 3.625 1.78125l0 -1.5l1.953125 0l0 10.765625q0 2.90625 -0.59375 4.109375q-0.59375 1.21875 -1.875 1.921875q-1.28125 0.703125 -3.15625 0.703125q-2.234375 0 -3.609375 -1.0q-1.359375 -1.0 -1.3125 -3.015625zm1.734375 -7.484375q0 2.453125 0.96875 3.578125q0.984375 1.125 2.453125 1.125q1.453125 0 2.4375 -1.109375q0.984375 -1.125 0.984375 -3.515625q0 -2.28125 -1.015625 -3.4375q-1.015625 -1.171875 -2.453125 -1.171875q-1.40625 0 -2.390625 1.140625q-0.984375 1.140625 -0.984375 3.390625zm20.519531 2.4375l2.171875 0.28125q-0.515625 1.90625 -1.90625 2.96875q-1.390625 1.046875 -3.5625 1.046875q-2.734375 0 -4.34375 -1.671875q-1.59375 -1.6875 -1.59375 -4.734375q0 -3.140625 1.609375 -4.875q1.625 -1.734375 4.203125 -1.734375q2.5 0 4.078125 1.703125q1.59375 1.703125 1.59375 4.78125q0 0.1875 -0.015625 0.5625l-9.28125 0q0.109375 2.046875 1.15625 3.140625q1.046875 1.09375 2.609375 1.09375q1.15625 0 1.96875 -0.609375q0.828125 -0.609375 1.3125 -1.953125zm-6.9375 -3.40625l6.953125 0q-0.140625 -1.5625 -0.796875 -2.359375q-1.0 -1.21875 -2.609375 -1.21875q-1.453125 0 -2.453125 0.984375q-0.984375 0.96875 -1.09375 2.59375z" fill-rule="nonzero"></path><path fill="#000000" d="m181.89899 439.80664l2.28125 0.578125q-0.71875 2.796875 -2.578125 4.28125q-1.859375 1.46875 -4.546875 1.46875q-2.765625 0 -4.515625 -1.125q-1.734375 -1.140625 -2.640625 -3.28125q-0.90625 -2.15625 -0.90625 -4.609375q0 -2.6875 1.015625 -4.6875q1.03125 -2.0 2.921875 -3.03125q1.890625 -1.03125 4.171875 -1.03125q2.578125 0 4.328125 1.3125q1.765625 1.3125 2.453125 3.6875l-2.234375 0.53125q-0.609375 -1.875 -1.75 -2.734375q-1.125 -0.859375 -2.84375 -0.859375q-1.984375 0 -3.3125 0.953125q-1.328125 0.953125 -1.875 2.546875q-0.53125 1.59375 -0.53125 3.296875q0 2.1875 0.625 3.828125q0.640625 1.640625 1.984375 2.453125q1.359375 0.796875 2.921875 0.796875q1.921875 0 3.234375 -1.09375q1.328125 -1.109375 1.796875 -3.28125zm4.0195312 -0.1875q0 -3.46875 1.921875 -5.125q1.609375 -1.390625 3.921875 -1.390625q2.5625 0 4.1875 1.6875q1.625 1.6875 1.625 4.640625q0 2.40625 -0.71875 3.78125q-0.71875 1.375 -2.09375 2.140625q-1.375 0.765625 -3.0 0.765625q-2.625 0 -4.234375 -1.671875q-1.609375 -1.6875 -1.609375 -4.828125zm2.171875 0q0 2.390625 1.03125 3.578125q1.046875 1.1875 2.640625 1.1875q1.5625 0 2.609375 -1.1875q1.046875 -1.203125 1.046875 -3.65625q0 -2.3125 -1.0625 -3.5q-1.046875 -1.1875 -2.59375 -1.1875q-1.59375 0 -2.640625 1.1875q-1.03125 1.1875 -1.03125 3.578125zm11.957031 6.21875l0 -12.453125l1.90625 0l0 1.78125q1.375 -2.0625 3.953125 -2.0625q1.125 0 2.0625 0.40625q0.953125 0.40625 1.421875 1.0625q0.46875 0.65625 0.65625 1.5625q0.125 0.578125 0.125 2.046875l0 7.65625l-2.109375 0l0 -7.578125q0 -1.28125 -0.25 -1.921875q-0.25 -0.640625 -0.875 -1.015625q-0.625 -0.390625 -1.46875 -0.390625q-1.34375 0 -2.328125 0.859375q-0.984375 0.859375 -0.984375 3.25l0 6.796875l-2.109375 0zm16.816406 0l-4.734375 -12.453125l2.21875 0l2.671875 7.453125q0.4375 1.21875 0.796875 2.515625q0.28125 -0.984375 0.78125 -2.375l2.765625 -7.59375l2.171875 0l-4.703125 12.453125l-1.96875 0zm17.0625 -4.015625l2.171875 0.28125q-0.515625 1.90625 -1.90625 2.96875q-1.390625 1.046875 -3.5625 1.046875q-2.734375 0 -4.34375 -1.671875q-1.59375 -1.6875 -1.59375 -4.734375q0 -3.140625 1.609375 -4.875q1.625 -1.734375 4.203125 -1.734375q2.5 0 4.078125 1.703125q1.59375 1.703125 1.59375 4.78125q0 0.1875 -0.015625 0.5625l-9.28125 0q0.109375 2.046875 1.15625 3.140625q1.046875 1.09375 2.609375 1.09375q1.15625 0 1.96875 -0.609375q0.828125 -0.609375 1.3125 -1.953125zm-6.9375 -3.40625l6.953125 0q-0.140625 -1.5625 -0.796875 -2.359375q-1.0 -1.21875 -2.609375 -1.21875q-1.453125 0 -2.453125 0.984375q-0.984375 0.96875 -1.09375 2.59375zm11.738281 7.421875l0 -12.453125l1.890625 0l0 1.890625q0.734375 -1.328125 1.34375 -1.75q0.625 -0.421875 1.359375 -0.421875q1.0625 0 2.171875 0.6875l-0.734375 1.953125q-0.765625 -0.453125 -1.546875 -0.453125q-0.6875 0 -1.25 0.421875q-0.546875 0.40625 -0.78125 1.140625q-0.34375 1.125 -0.34375 2.46875l0 6.515625l-2.109375 0zm7.1640625 -3.71875l2.09375 -0.328125q0.171875 1.25 0.96875 1.921875q0.8125 0.671875 2.25 0.671875q1.453125 0 2.15625 -0.59375q0.703125 -0.59375 0.703125 -1.390625q0 -0.71875 -0.625 -1.125q-0.421875 -0.28125 -2.15625 -0.71875q-2.3125 -0.578125 -3.21875 -1.0q-0.890625 -0.4375 -1.359375 -1.1875q-0.453125 -0.765625 -0.453125 -1.671875q0 -0.828125 0.375 -1.53125q0.390625 -0.71875 1.046875 -1.1875q0.484375 -0.359375 1.328125 -0.609375q0.859375 -0.265625 1.828125 -0.265625q1.46875 0 2.578125 0.421875q1.109375 0.421875 1.625 1.15625q0.53125 0.71875 0.734375 1.921875l-2.0625 0.28125q-0.140625 -0.96875 -0.8125 -1.5q-0.671875 -0.546875 -1.90625 -0.546875q-1.453125 0 -2.078125 0.484375q-0.625 0.484375 -0.625 1.125q0 0.40625 0.265625 0.734375q0.25 0.34375 0.8125 0.5625q0.3125 0.125 1.859375 0.546875q2.234375 0.59375 3.109375 0.984375q0.890625 0.375 1.390625 1.109375q0.515625 0.71875 0.515625 1.796875q0 1.046875 -0.625 1.984375q-0.609375 0.9375 -1.765625 1.453125q-1.15625 0.5 -2.625 0.5q-2.421875 0 -3.703125 -1.0q-1.265625 -1.015625 -1.625 -3.0zm12.859375 -11.03125l0 -2.4375l2.109375 0l0 2.4375l-2.109375 0zm0 14.75l0 -12.453125l2.109375 0l0 12.453125l-2.109375 0zm4.5351562 -6.21875q0 -3.46875 1.921875 -5.125q1.609375 -1.390625 3.921875 -1.390625q2.5625 0 4.1875 1.6875q1.625 1.6875 1.625 4.640625q0 2.40625 -0.71875 3.78125q-0.71875 1.375 -2.09375 2.140625q-1.375 0.765625 -3.0 0.765625q-2.625 0 -4.234375 -1.671875q-1.609375 -1.6875 -1.609375 -4.828125zm2.171875 0q0 2.390625 1.03125 3.578125q1.046875 1.1875 2.640625 1.1875q1.5625 0 2.609375 -1.1875q1.046875 -1.203125 1.046875 -3.65625q0 -2.3125 -1.0625 -3.5q-1.046875 -1.1875 -2.59375 -1.1875q-1.59375 0 -2.640625 1.1875q-1.03125 1.1875 -1.03125 3.578125zm11.957031 6.21875l0 -12.453125l1.90625 0l0 1.78125q1.375 -2.0625 3.953125 -2.0625q1.125 0 2.0625 0.40625q0.953125 0.40625 1.421875 1.0625q0.46875 0.65625 0.65625 1.5625q0.125 0.578125 0.125 2.046875l0 7.65625l-2.109375 0l0 -7.578125q0 -1.28125 -0.25 -1.921875q-0.25 -0.640625 -0.875 -1.015625q-0.625 -0.390625 -1.46875 -0.390625q-1.34375 0 -2.328125 0.859375q-0.984375 0.859375 -0.984375 3.25l0 6.796875l-2.109375 0z" fill-rule="nonzero"></path><path fill="#00ff00" d="m346.83728 382.60367l111.02887 0l0 80.38846l-111.02887 0z" fill-rule="nonzero"></path><path stroke="#000000" stroke-width="1.0" stroke-linejoin="round" stroke-linecap="butt" d="m346.83728 382.60367l111.02887 0l0 80.38846l-111.02887 0z" fill-rule="nonzero"></path><path fill="#000000" d="m365.46695 431.3379l0 -17.1875l3.421875 0l4.0625 12.171875q0.5625 1.703125 0.828125 2.546875q0.296875 -0.9375 0.90625 -2.765625l4.125 -11.953125l3.046875 0l0 17.1875l-2.1875 0l0 -14.375l-4.984375 14.375l-2.0625 0l-4.96875 -14.625l0 14.625l-2.1875 0zm28.320312 -4.015625l2.171875 0.28125q-0.515625 1.90625 -1.90625 2.96875q-1.390625 1.046875 -3.5625 1.046875q-2.734375 0 -4.34375 -1.671875q-1.59375 -1.6875 -1.59375 -4.734375q0 -3.140625 1.609375 -4.875q1.625 -1.734375 4.203125 -1.734375q2.5 0 4.078125 1.703125q1.59375 1.703125 1.59375 4.78125q0 0.1875 -0.015625 0.5625l-9.28125 0q0.109375 2.046875 1.15625 3.140625q1.046875 1.09375 2.609375 1.09375q1.15625 0 1.96875 -0.609375q0.828125 -0.609375 1.3125 -1.953125zm-6.9375 -3.40625l6.953125 0q-0.140625 -1.5625 -0.796875 -2.359375q-1.0 -1.21875 -2.609375 -1.21875q-1.453125 0 -2.453125 0.984375q-0.984375 0.96875 -1.09375 2.59375zm16.363281 5.53125l0.3125 1.859375q-0.890625 0.203125 -1.59375 0.203125q-1.15625 0 -1.796875 -0.359375q-0.625 -0.375 -0.890625 -0.96875q-0.25 -0.59375 -0.25 -2.484375l0 -7.171875l-1.546875 0l0 -1.640625l1.546875 0l0 -3.078125l2.09375 -1.265625l0 4.34375l2.125 0l0 1.640625l-2.125 0l0 7.28125q0 0.90625 0.109375 1.171875q0.125 0.25 0.375 0.40625q0.25 0.140625 0.71875 0.140625q0.34375 0 0.921875 -0.078125zm2.0429688 1.890625l0 -12.453125l1.890625 0l0 1.890625q0.734375 -1.328125 1.34375 -1.75q0.625 -0.421875 1.359375 -0.421875q1.0625 0 2.171875 0.6875l-0.734375 1.953125q-0.765625 -0.453125 -1.546875 -0.453125q-0.6875 0 -1.25 0.421875q-0.546875 0.40625 -0.78125 1.140625q-0.34375 1.125 -0.34375 2.46875l0 6.515625l-2.109375 0zm8.0234375 -14.75l0 -2.4375l2.109375 0l0 2.4375l-2.109375 0zm0 14.75l0 -12.453125l2.109375 0l0 12.453125l-2.109375 0zm13.441406 -4.5625l2.078125 0.265625q-0.34375 2.15625 -1.75 3.375q-1.390625 1.203125 -3.4375 1.203125q-2.546875 0 -4.109375 -1.671875q-1.546875 -1.671875 -1.546875 -4.78125q0 -2.015625 0.671875 -3.53125q0.671875 -1.515625 2.03125 -2.265625q1.359375 -0.765625 2.96875 -0.765625q2.03125 0 3.3125 1.03125q1.296875 1.03125 1.65625 2.90625l-2.046875 0.328125q-0.296875 -1.265625 -1.046875 -1.890625q-0.734375 -0.640625 -1.796875 -0.640625q-1.59375 0 -2.59375 1.15625q-0.984375 1.140625 -0.984375 3.609375q0 2.5 0.953125 3.640625q0.96875 1.140625 2.515625 1.140625q1.234375 0 2.0625 -0.765625q0.84375 -0.765625 1.0625 -2.34375zm3.03125 0.84375l2.09375 -0.328125q0.171875 1.25 0.96875 1.921875q0.8125 0.671875 2.25 0.671875q1.453125 0 2.15625 -0.59375q0.703125 -0.59375 0.703125 -1.390625q0 -0.71875 -0.625 -1.125q-0.421875 -0.28125 -2.15625 -0.71875q-2.3125 -0.578125 -3.21875 -1.0q-0.890625 -0.4375 -1.359375 -1.1875q-0.453125 -0.765625 -0.453125 -1.671875q0 -0.828125 0.375 -1.53125q0.390625 -0.71875 1.046875 -1.1875q0.484375 -0.359375 1.328125 -0.609375q0.859375 -0.265625 1.828125 -0.265625q1.46875 0 2.578125 0.421875q1.109375 0.421875 1.625 1.15625q0.53125 0.71875 0.734375 1.921875l-2.0625 0.28125q-0.140625 -0.96875 -0.8125 -1.5q-0.671875 -0.546875 -1.90625 -0.546875q-1.453125 0 -2.078125 0.484375q-0.625 0.484375 -0.625 1.125q0 0.40625 0.265625 0.734375q0.25 0.34375 0.8125 0.5625q0.3125 0.125 1.859375 0.546875q2.234375 0.59375 3.109375 0.984375q0.890625 0.375 1.390625 1.109375q0.515625 0.71875 0.515625 1.796875q0 1.046875 -0.625 1.984375q-0.609375 0.9375 -1.765625 1.453125q-1.15625 0.5 -2.625 0.5q-2.421875 0 -3.703125 -1.0q-1.265625 -1.015625 -1.625 -3.0z" fill-rule="nonzero"></path><path fill="#00ff00" d="m500.75986 382.60367l136.65878 0l0 80.38846l-136.65878 0z" fill-rule="nonzero"></path><path stroke="#000000" stroke-width="1.0" stroke-linejoin="round" stroke-linecap="butt" d="m500.75986 382.60367l136.65878 0l0 80.38846l-136.65878 0z" fill-rule="nonzero"></path><path fill="#000000" d="m537.8412 425.30664l2.28125 0.578125q-0.71875 2.796875 -2.578125 4.28125q-1.859375 1.46875 -4.546875 1.46875q-2.765625 0 -4.515625 -1.125q-1.734375 -1.140625 -2.640625 -3.28125q-0.90625 -2.15625 -0.90625 -4.609375q0 -2.6875 1.015625 -4.6875q1.03125 -2.0 2.921875 -3.03125q1.890625 -1.03125 4.171875 -1.03125q2.578125 0 4.328125 1.3125q1.765625 1.3125 2.453125 3.6875l-2.234375 0.53125q-0.609375 -1.875 -1.75 -2.734375q-1.125 -0.859375 -2.84375 -0.859375q-1.984375 0 -3.3125 0.953125q-1.328125 0.953125 -1.875 2.546875q-0.53125 1.59375 -0.53125 3.296875q0 2.1875 0.625 3.828125q0.640625 1.640625 1.984375 2.453125q1.359375 0.796875 2.921875 0.796875q1.921875 0 3.234375 -1.09375q1.328125 -1.109375 1.796875 -3.28125zm12.957031 6.03125l0 -1.828125q-1.453125 2.109375 -3.9375 2.109375q-1.109375 0 -2.0625 -0.421875q-0.953125 -0.421875 -1.421875 -1.0625q-0.453125 -0.640625 -0.640625 -1.5625q-0.140625 -0.625 -0.140625 -1.96875l0 -7.71875l2.109375 0l0 6.90625q0 1.65625 0.140625 2.234375q0.1875 0.828125 0.828125 1.3125q0.65625 0.46875 1.609375 0.46875q0.9375 0 1.765625 -0.484375q0.84375 -0.5 1.1875 -1.328125q0.34375 -0.84375 0.34375 -2.4375l0 -6.671875l2.109375 0l0 12.453125l-1.890625 0zm5.1757812 0l0 -12.453125l1.890625 0l0 1.890625q0.734375 -1.328125 1.34375 -1.75q0.625 -0.421875 1.359375 -0.421875q1.0625 0 2.171875 0.6875l-0.734375 1.953125q-0.765625 -0.453125 -1.546875 -0.453125q-0.6875 0 -1.25 0.421875q-0.546875 0.40625 -0.78125 1.140625q-0.34375 1.125 -0.34375 2.46875l0 6.515625l-2.109375 0zm16.132812 -1.53125q-1.171875 0.984375 -2.265625 1.40625q-1.078125 0.40625 -2.3125 0.40625q-2.046875 0 -3.15625 -1.0q-1.09375 -1.0 -1.09375 -2.5625q0 -0.921875 0.40625 -1.671875q0.421875 -0.75 1.09375 -1.203125q0.671875 -0.46875 1.515625 -0.703125q0.625 -0.15625 1.875 -0.3125q2.5625 -0.3125 3.765625 -0.734375q0.015625 -0.421875 0.015625 -0.546875q0 -1.28125 -0.609375 -1.8125q-0.796875 -0.71875 -2.390625 -0.71875q-1.5 0 -2.203125 0.53125q-0.703125 0.515625 -1.046875 1.84375l-2.0625 -0.28125q0.28125 -1.328125 0.921875 -2.140625q0.640625 -0.8125 1.859375 -1.25q1.21875 -0.453125 2.828125 -0.453125q1.59375 0 2.59375 0.375q1.0 0.375 1.46875 0.953125q0.46875 0.5625 0.65625 1.4375q0.09375 0.53125 0.09375 1.9375l0 2.8125q0 2.9375 0.140625 3.71875q0.140625 0.78125 0.53125 1.5l-2.203125 0q-0.328125 -0.65625 -0.421875 -1.53125zm-0.171875 -4.71875q-1.15625 0.46875 -3.453125 0.796875q-1.296875 0.1875 -1.84375 0.421875q-0.53125 0.234375 -0.828125 0.6875q-0.28125 0.453125 -0.28125 1.0q0 0.84375 0.625 1.40625q0.640625 0.5625 1.875 0.5625q1.21875 0 2.171875 -0.53125q0.953125 -0.53125 1.390625 -1.453125q0.34375 -0.71875 0.34375 -2.109375l0 -0.78125zm10.003906 4.359375l0.3125 1.859375q-0.890625 0.203125 -1.59375 0.203125q-1.15625 0 -1.796875 -0.359375q-0.625 -0.375 -0.890625 -0.96875q-0.25 -0.59375 -0.25 -2.484375l0 -7.171875l-1.546875 0l0 -1.640625l1.546875 0l0 -3.078125l2.09375 -1.265625l0 4.34375l2.125 0l0 1.640625l-2.125 0l0 7.28125q0 0.90625 0.109375 1.171875q0.125 0.25 0.375 0.40625q0.25 0.140625 0.71875 0.140625q0.34375 0 0.921875 -0.078125zm2.0742188 -12.859375l0 -2.4375l2.109375 0l0 2.4375l-2.109375 0zm0 14.75l0 -12.453125l2.109375 0l0 12.453125l-2.109375 0zm4.5351562 -6.21875q0 -3.46875 1.921875 -5.125q1.609375 -1.390625 3.921875 -1.390625q2.5625 0 4.1875 1.6875q1.625 1.6875 1.625 4.640625q0 2.40625 -0.71875 3.78125q-0.71875 1.375 -2.09375 2.140625q-1.375 0.765625 -3.0 0.765625q-2.625 0 -4.234375 -1.671875q-1.609375 -1.6875 -1.609375 -4.828125zm2.171875 0q0 2.390625 1.03125 3.578125q1.046875 1.1875 2.640625 1.1875q1.5625 0 2.609375 -1.1875q1.046875 -1.203125 1.046875 -3.65625q0 -2.3125 -1.0625 -3.5q-1.046875 -1.1875 -2.59375 -1.1875q-1.59375 0 -2.640625 1.1875q-1.03125 1.1875 -1.03125 3.578125zm11.957031 6.21875l0 -12.453125l1.90625 0l0 1.78125q1.375 -2.0625 3.953125 -2.0625q1.125 0 2.0625 0.40625q0.953125 0.40625 1.421875 1.0625q0.46875 0.65625 0.65625 1.5625q0.125 0.578125 0.125 2.046875l0 7.65625l-2.109375 0l0 -7.578125q0 -1.28125 -0.25 -1.921875q-0.25 -0.640625 -0.875 -1.015625q-0.625 -0.390625 -1.46875 -0.390625q-1.34375 0 -2.328125 0.859375q-0.984375 0.859375 -0.984375 3.25l0 6.796875l-2.109375 0z" fill-rule="nonzero"></path><path fill="#00ff00" d="m680.3123 382.60367l136.65881 0l0 80.38846l-136.65881 0z" fill-rule="nonzero"></path><path stroke="#000000" stroke-width="1.0" stroke-linejoin="round" stroke-linecap="butt" d="m680.3123 382.60367l136.65881 0l0 80.38846l-136.65881 0z" fill-rule="nonzero"></path><path fill="#000000" d="m702.7023 431.3379l-6.65625 -17.1875l2.453125 0l4.46875 12.484375q0.546875 1.5 0.90625 2.8125q0.390625 -1.40625 0.921875 -2.8125l4.640625 -12.484375l2.328125 0l-6.734375 17.1875l-2.328125 0zm18.945312 -1.53125q-1.171875 0.984375 -2.265625 1.40625q-1.078125 0.40625 -2.3125 0.40625q-2.046875 0 -3.15625 -1.0q-1.09375 -1.0 -1.09375 -2.5625q0 -0.921875 0.40625 -1.671875q0.421875 -0.75 1.09375 -1.203125q0.671875 -0.46875 1.515625 -0.703125q0.625 -0.15625 1.875 -0.3125q2.5625 -0.3125 3.765625 -0.734375q0.015625 -0.421875 0.015625 -0.546875q0 -1.28125 -0.609375 -1.8125q-0.796875 -0.71875 -2.390625 -0.71875q-1.5 0 -2.203125 0.53125q-0.703125 0.515625 -1.046875 1.84375l-2.0625 -0.28125q0.28125 -1.328125 0.921875 -2.140625q0.640625 -0.8125 1.859375 -1.25q1.21875 -0.453125 2.828125 -0.453125q1.59375 0 2.59375 0.375q1.0 0.375 1.46875 0.953125q0.46875 0.5625 0.65625 1.4375q0.09375 0.53125 0.09375 1.9375l0 2.8125q0 2.9375 0.140625 3.71875q0.140625 0.78125 0.53125 1.5l-2.203125 0q-0.328125 -0.65625 -0.421875 -1.53125zm-0.171875 -4.71875q-1.15625 0.46875 -3.453125 0.796875q-1.296875 0.1875 -1.84375 0.421875q-0.53125 0.234375 -0.828125 0.6875q-0.28125 0.453125 -0.28125 1.0q0 0.84375 0.625 1.40625q0.640625 0.5625 1.875 0.5625q1.21875 0 2.171875 -0.53125q0.953125 -0.53125 1.390625 -1.453125q0.34375 -0.71875 0.34375 -2.109375l0 -0.78125zm5.3476562 6.25l0 -17.1875l2.109375 0l0 17.1875l-2.109375 0zm5.3945312 -14.75l0 -2.4375l2.109375 0l0 2.4375l-2.109375 0zm0 14.75l0 -12.453125l2.109375 0l0 12.453125l-2.109375 0zm13.394531 0l0 -1.578125q-1.1875 1.859375 -3.484375 1.859375q-1.484375 0 -2.734375 -0.8125q-1.25 -0.828125 -1.9375 -2.296875q-0.671875 -1.46875 -0.671875 -3.390625q0 -1.859375 0.609375 -3.375q0.625 -1.515625 1.859375 -2.328125q1.25 -0.8125 2.78125 -0.8125q1.125 0 2.0 0.484375q0.890625 0.46875 1.4375 1.234375l0 -6.171875l2.09375 0l0 17.1875l-1.953125 0zm-6.671875 -6.21875q0 2.390625 1.0 3.578125q1.015625 1.1875 2.390625 1.1875q1.390625 0 2.34375 -1.125q0.96875 -1.140625 0.96875 -3.453125q0 -2.5625 -0.984375 -3.75q-0.984375 -1.203125 -2.421875 -1.203125q-1.40625 0 -2.359375 1.15625q-0.9375 1.140625 -0.9375 3.609375zm20.066406 4.6875q-1.171875 0.984375 -2.265625 1.40625q-1.078125 0.40625 -2.3125 0.40625q-2.046875 0 -3.15625 -1.0q-1.09375 -1.0 -1.09375 -2.5625q0 -0.921875 0.40625 -1.671875q0.421875 -0.75 1.09375 -1.203125q0.671875 -0.46875 1.515625 -0.703125q0.625 -0.15625 1.875 -0.3125q2.5625 -0.3125 3.765625 -0.734375q0.015625 -0.421875 0.015625 -0.546875q0 -1.28125 -0.609375 -1.8125q-0.796875 -0.71875 -2.390625 -0.71875q-1.5 0 -2.203125 0.53125q-0.703125 0.515625 -1.046875 1.84375l-2.0625 -0.28125q0.28125 -1.328125 0.921875 -2.140625q0.640625 -0.8125 1.859375 -1.25q1.21875 -0.453125 2.828125 -0.453125q1.59375 0 2.59375 0.375q1.0 0.375 1.46875 0.953125q0.46875 0.5625 0.65625 1.4375q0.09375 0.53125 0.09375 1.9375l0 2.8125q0 2.9375 0.140625 3.71875q0.140625 0.78125 0.53125 1.5l-2.203125 0q-0.328125 -0.65625 -0.421875 -1.53125zm-0.171875 -4.71875q-1.15625 0.46875 -3.453125 0.796875q-1.296875 0.1875 -1.84375 0.421875q-0.53125 0.234375 -0.828125 0.6875q-0.28125 0.453125 -0.28125 1.0q0 0.84375 0.625 1.40625q0.640625 0.5625 1.875 0.5625q1.21875 0 2.171875 -0.53125q0.953125 -0.53125 1.390625 -1.453125q0.34375 -0.71875 0.34375 -2.109375l0 -0.78125zm10.003906 4.359375l0.3125 1.859375q-0.890625 0.203125 -1.59375 0.203125q-1.15625 0 -1.796875 -0.359375q-0.625 -0.375 -0.890625 -0.96875q-0.25 -0.59375 -0.25 -2.484375l0 -7.171875l-1.546875 0l0 -1.640625l1.546875 0l0 -3.078125l2.09375 -1.265625l0 4.34375l2.125 0l0 1.640625l-2.125 0l0 7.28125q0 0.90625 0.109375 1.171875q0.125 0.25 0.375 0.40625q0.25 0.140625 0.71875 0.140625q0.34375 0 0.921875 -0.078125zm2.0742188 -12.859375l0 -2.4375l2.109375 0l0 2.4375l-2.109375 0zm0 14.75l0 -12.453125l2.109375 0l0 12.453125l-2.109375 0zm4.5351562 -6.21875q0 -3.46875 1.921875 -5.125q1.609375 -1.390625 3.921875 -1.390625q2.5625 0 4.1875 1.6875q1.625 1.6875 1.625 4.640625q0 2.40625 -0.71875 3.78125q-0.71875 1.375 -2.09375 2.140625q-1.375 0.765625 -3.0 0.765625q-2.625 0 -4.234375 -1.671875q-1.609375 -1.6875 -1.609375 -4.828125zm2.171875 0q0 2.390625 1.03125 3.578125q1.046875 1.1875 2.640625 1.1875q1.5625 0 2.609375 -1.1875q1.046875 -1.203125 1.046875 -3.65625q0 -2.3125 -1.0625 -3.5q-1.046875 -1.1875 -2.59375 -1.1875q-1.59375 0 -2.640625 1.1875q-1.03125 1.1875 -1.03125 3.578125zm11.957031 6.21875l0 -12.453125l1.90625 0l0 1.78125q1.375 -2.0625 3.953125 -2.0625q1.125 0 2.0625 0.40625q0.953125 0.40625 1.421875 1.0625q0.46875 0.65625 0.65625 1.5625q0.125 0.578125 0.125 2.046875l0 7.65625l-2.109375 0l0 -7.578125q0 -1.28125 -0.25 -1.921875q-0.25 -0.640625 -0.875 -1.015625q-0.625 -0.390625 -1.46875 -0.390625q-1.34375 0 -2.328125 0.859375q-0.984375 0.859375 -0.984375 3.25l0 6.796875l-2.109375 0z" fill-rule="nonzero"></path><path fill="#ff9900" d="m154.05905 496.9344l662.91077 0l0 80.38843l-662.91077 0z" fill-rule="nonzero"></path><path stroke="#000000" stroke-width="1.0" stroke-linejoin="round" stroke-linecap="butt" d="m154.05905 496.9344l662.91077 0l0 80.38843l-662.91077 0z" fill-rule="nonzero"></path><path fill="#000000" d="m385.22733 545.6686l0 -17.1875l2.265625 0l0 15.15625l8.46875 0l0 2.03125l-10.734375 0zm13.175781 -14.75l0 -2.4375l2.109375 0l0 2.4375l-2.109375 0zm0 14.75l0 -12.453125l2.109375 0l0 12.453125l-2.109375 0zm7.2695312 0l-1.953125 0l0 -17.1875l2.109375 0l0 6.140625q1.328125 -1.6875 3.40625 -1.6875q1.140625 0 2.171875 0.46875q1.03125 0.46875 1.6875 1.3125q0.65625 0.828125 1.03125 2.015625q0.375 1.171875 0.375 2.53125q0 3.1875 -1.578125 4.9375q-1.578125 1.75 -3.796875 1.75q-2.203125 0 -3.453125 -1.84375l0 1.5625zm-0.03125 -6.3125q0 2.234375 0.609375 3.234375q1.0 1.625 2.703125 1.625q1.375 0 2.375 -1.203125q1.015625 -1.203125 1.015625 -3.578125q0 -2.4375 -0.96875 -3.59375q-0.953125 -1.171875 -2.328125 -1.171875q-1.390625 0 -2.40625 1.203125q-1.0 1.203125 -1.0 3.484375zm11.410156 6.3125l0 -12.453125l1.890625 0l0 1.890625q0.734375 -1.328125 1.34375 -1.75q0.625 -0.421875 1.359375 -0.421875q1.0625 0 2.171875 0.6875l-0.734375 1.953125q-0.765625 -0.453125 -1.546875 -0.453125q-0.6875 0 -1.25 0.421875q-0.546875 0.40625 -0.78125 1.140625q-0.34375 1.125 -0.34375 2.46875l0 6.515625l-2.109375 0zm16.132812 -1.53125q-1.171875 0.984375 -2.265625 1.40625q-1.078125 0.40625 -2.3125 0.40625q-2.046875 0 -3.15625 -1.0q-1.09375 -1.0 -1.09375 -2.5625q0 -0.921875 0.40625 -1.671875q0.421875 -0.75 1.09375 -1.203125q0.671875 -0.46875 1.515625 -0.703125q0.625 -0.15625 1.875 -0.3125q2.5625 -0.3125 3.765625 -0.734375q0.015625 -0.421875 0.015625 -0.546875q0 -1.28125 -0.609375 -1.8125q-0.796875 -0.71875 -2.390625 -0.71875q-1.5 0 -2.203125 0.53125q-0.703125 0.515625 -1.046875 1.84375l-2.0625 -0.28125q0.28125 -1.328125 0.921875 -2.140625q0.640625 -0.8125 1.859375 -1.25q1.21875 -0.453125 2.828125 -0.453125q1.59375 0 2.59375 0.375q1.0 0.375 1.46875 0.953125q0.46875 0.5625 0.65625 1.4375q0.09375 0.53125 0.09375 1.9375l0 2.8125q0 2.9375 0.140625 3.71875q0.140625 0.78125 0.53125 1.5l-2.203125 0q-0.328125 -0.65625 -0.421875 -1.53125zm-0.171875 -4.71875q-1.15625 0.46875 -3.453125 0.796875q-1.296875 0.1875 -1.84375 0.421875q-0.53125 0.234375 -0.828125 0.6875q-0.28125 0.453125 -0.28125 1.0q0 0.84375 0.625 1.40625q0.640625 0.5625 1.875 0.5625q1.21875 0 2.171875 -0.53125q0.953125 -0.53125 1.390625 -1.453125q0.34375 -0.71875 0.34375 -2.109375l0 -0.78125zm5.3789062 6.25l0 -12.453125l1.890625 0l0 1.890625q0.734375 -1.328125 1.34375 -1.75q0.625 -0.421875 1.359375 -0.421875q1.0625 0 2.171875 0.6875l-0.734375 1.953125q-0.765625 -0.453125 -1.546875 -0.453125q-0.6875 0 -1.25 0.421875q-0.546875 0.40625 -0.78125 1.140625q-0.34375 1.125 -0.34375 2.46875l0 6.515625l-2.109375 0zm8.0234375 -14.75l0 -2.4375l2.109375 0l0 2.4375l-2.109375 0zm0 14.75l0 -12.453125l2.109375 0l0 12.453125l-2.109375 0zm13.847656 -4.015625l2.171875 0.28125q-0.515625 1.90625 -1.90625 2.96875q-1.390625 1.046875 -3.5625 1.046875q-2.734375 0 -4.34375 -1.671875q-1.59375 -1.6875 -1.59375 -4.734375q0 -3.140625 1.609375 -4.875q1.625 -1.734375 4.203125 -1.734375q2.5 0 4.078125 1.703125q1.59375 1.703125 1.59375 4.78125q0 0.1875 -0.015625 0.5625l-9.28125 0q0.109375 2.046875 1.15625 3.140625q1.046875 1.09375 2.609375 1.09375q1.15625 0 1.96875 -0.609375q0.828125 -0.609375 1.3125 -1.953125zm-6.9375 -3.40625l6.953125 0q-0.140625 -1.5625 -0.796875 -2.359375q-1.0 -1.21875 -2.609375 -1.21875q-1.453125 0 -2.453125 0.984375q-0.984375 0.96875 -1.09375 2.59375zm10.910156 3.703125l2.09375 -0.328125q0.171875 1.25 0.96875 1.921875q0.8125 0.671875 2.25 0.671875q1.453125 0 2.15625 -0.59375q0.703125 -0.59375 0.703125 -1.390625q0 -0.71875 -0.625 -1.125q-0.421875 -0.28125 -2.15625 -0.71875q-2.3125 -0.578125 -3.21875 -1.0q-0.890625 -0.4375 -1.359375 -1.1875q-0.453125 -0.765625 -0.453125 -1.671875q0 -0.828125 0.375 -1.53125q0.390625 -0.71875 1.046875 -1.1875q0.484375 -0.359375 1.328125 -0.609375q0.859375 -0.265625 1.828125 -0.265625q1.46875 0 2.578125 0.421875q1.109375 0.421875 1.625 1.15625q0.53125 0.71875 0.734375 1.921875l-2.0625 0.28125q-0.140625 -0.96875 -0.8125 -1.5q-0.671875 -0.546875 -1.90625 -0.546875q-1.453125 0 -2.078125 0.484375q-0.625 0.484375 -0.625 1.125q0 0.40625 0.265625 0.734375q0.25 0.34375 0.8125 0.5625q0.3125 0.125 1.859375 0.546875q2.234375 0.59375 3.109375 0.984375q0.890625 0.375 1.390625 1.109375q0.515625 0.71875 0.515625 1.796875q0 1.046875 -0.625 1.984375q-0.609375 0.9375 -1.765625 1.453125q-1.15625 0.5 -2.625 0.5q-2.421875 0 -3.703125 -1.0q-1.265625 -1.015625 -1.625 -3.0zm27.636719 2.1875q-1.171875 0.984375 -2.265625 1.40625q-1.078125 0.40625 -2.3125 0.40625q-2.046875 0 -3.15625 -1.0q-1.09375 -1.0 -1.09375 -2.5625q0 -0.921875 0.40625 -1.671875q0.421875 -0.75 1.09375 -1.203125q0.671875 -0.46875 1.515625 -0.703125q0.625 -0.15625 1.875 -0.3125q2.5625 -0.3125 3.765625 -0.734375q0.015625 -0.421875 0.015625 -0.546875q0 -1.28125 -0.609375 -1.8125q-0.796875 -0.71875 -2.390625 -0.71875q-1.5 0 -2.203125 0.53125q-0.703125 0.515625 -1.046875 1.84375l-2.0625 -0.28125q0.28125 -1.328125 0.921875 -2.140625q0.640625 -0.8125 1.859375 -1.25q1.21875 -0.453125 2.828125 -0.453125q1.59375 0 2.59375 0.375q1.0 0.375 1.46875 0.953125q0.46875 0.5625 0.65625 1.4375q0.09375 0.53125 0.09375 1.9375l0 2.8125q0 2.9375 0.140625 3.71875q0.140625 0.78125 0.53125 1.5l-2.203125 0q-0.328125 -0.65625 -0.421875 -1.53125zm-0.171875 -4.71875q-1.15625 0.46875 -3.453125 0.796875q-1.296875 0.1875 -1.84375 0.421875q-0.53125 0.234375 -0.828125 0.6875q-0.28125 0.453125 -0.28125 1.0q0 0.84375 0.625 1.40625q0.640625 0.5625 1.875 0.5625q1.21875 0 2.171875 -0.53125q0.953125 -0.53125 1.390625 -1.453125q0.34375 -0.71875 0.34375 -2.109375l0 -0.78125zm5.3945312 6.25l0 -12.453125l1.90625 0l0 1.78125q1.375 -2.0625 3.953125 -2.0625q1.125 0 2.0625 0.40625q0.953125 0.40625 1.421875 1.0625q0.46875 0.65625 0.65625 1.5625q0.125 0.578125 0.125 2.046875l0 7.65625l-2.109375 0l0 -7.578125q0 -1.28125 -0.25 -1.921875q-0.25 -0.640625 -0.875 -1.015625q-0.625 -0.390625 -1.46875 -0.390625q-1.34375 0 -2.328125 0.859375q-0.984375 0.859375 -0.984375 3.25l0 6.796875l-2.109375 0zm21.425812 0l0 -1.578125q-1.1875 1.859375 -3.484375 1.859375q-1.484375 0 -2.734375 -0.8125q-1.2500305 -0.828125 -1.9375305 -2.296875q-0.671875 -1.46875 -0.671875 -3.390625q0 -1.859375 0.609375 -3.375q0.625 -1.515625 1.8594055 -2.328125q1.25 -0.8125 2.78125 -0.8125q1.125 0 2.0 0.484375q0.890625 0.46875 1.4375 1.234375l0 -6.171875l2.09375 0l0 17.1875l-1.953125 0zm-6.6719055 -6.21875q0 2.390625 1.0000305 3.578125q1.015625 1.1875 2.390625 1.1875q1.390625 0 2.34375 -1.125q0.96875 -1.140625 0.96875 -3.453125q0 -2.5625 -0.984375 -3.75q-0.984375 -1.203125 -2.421875 -1.203125q-1.40625 0 -2.359375 1.15625q-0.9375305 1.140625 -0.9375305 3.609375zm23.25003 6.21875l0 -15.15625l-5.65625 0l0 -2.03125l13.625 0l0 2.03125l-5.6875 0l0 15.15625l-2.28125 0zm9.238281 -6.21875q0 -3.46875 1.921875 -5.125q1.609375 -1.390625 3.921875 -1.390625q2.5625 0 4.1875 1.6875q1.625 1.6875 1.625 4.640625q0 2.40625 -0.71875 3.78125q-0.71875 1.375 -2.09375 2.140625q-1.375 0.765625 -3.0 0.765625q-2.625 0 -4.234375 -1.671875q-1.609375 -1.6875 -1.609375 -4.828125zm2.171875 0q0 2.390625 1.03125 3.578125q1.046875 1.1875 2.640625 1.1875q1.5625 0 2.609375 -1.1875q1.046875 -1.203125 1.046875 -3.65625q0 -2.3125 -1.0625 -3.5q-1.046875 -1.1875 -2.59375 -1.1875q-1.59375 0 -2.640625 1.1875q-1.03125 1.1875 -1.03125 3.578125zm11.175781 0q0 -3.46875 1.921875 -5.125q1.609375 -1.390625 3.921875 -1.390625q2.5625 0 4.1875 1.6875q1.625 1.6875 1.625 4.640625q0 2.40625 -0.71875 3.78125q-0.71875 1.375 -2.09375 2.140625q-1.375 0.765625 -3.0 0.765625q-2.625 0 -4.234375 -1.671875q-1.609375 -1.6875 -1.609375 -4.828125zm2.171875 0q0 2.390625 1.03125 3.578125q1.046875 1.1875 2.640625 1.1875q1.5625 0 2.609375 -1.1875q1.046875 -1.203125 1.046875 -3.65625q0 -2.3125 -1.0625 -3.5q-1.046875 -1.1875 -2.59375 -1.1875q-1.59375 0 -2.640625 1.1875q-1.03125 1.1875 -1.03125 3.578125zm11.910156 6.21875l0 -17.1875l2.109375 0l0 17.1875l-2.109375 0zm4.5351562 -3.71875l2.09375 -0.328125q0.171875 1.25 0.96875 1.921875q0.8125 0.671875 2.25 0.671875q1.453125 0 2.15625 -0.59375q0.703125 -0.59375 0.703125 -1.390625q0 -0.71875 -0.625 -1.125q-0.421875 -0.28125 -2.15625 -0.71875q-2.3125 -0.578125 -3.21875 -1.0q-0.890625 -0.4375 -1.359375 -1.1875q-0.453125 -0.765625 -0.453125 -1.671875q0 -0.828125 0.375 -1.53125q0.390625 -0.71875 1.046875 -1.1875q0.484375 -0.359375 1.328125 -0.609375q0.859375 -0.265625 1.828125 -0.265625q1.46875 0 2.578125 0.421875q1.109375 0.421875 1.625 1.15625q0.53125 0.71875 0.734375 1.921875l-2.0625 0.28125q-0.140625 -0.96875 -0.8125 -1.5q-0.671875 -0.546875 -1.90625 -0.546875q-1.453125 0 -2.078125 0.484375q-0.625 0.484375 -0.625 1.125q0 0.40625 0.265625 0.734375q0.25 0.34375 0.8125 0.5625q0.3125 0.125 1.859375 0.546875q2.234375 0.59375 3.109375 0.984375q0.890625 0.375 1.390625 1.109375q0.515625 0.71875 0.515625 1.796875q0 1.046875 -0.625 1.984375q-0.609375 0.9375 -1.765625 1.453125q-1.15625 0.5 -2.625 0.5q-2.421875 0 -3.703125 -1.0q-1.265625 -1.015625 -1.625 -3.0z" fill-rule="nonzero"></path><path fill="#4a86e8" d="m154.05905 611.2651l662.91077 0l0 80.38849l-662.91077 0z" fill-rule="nonzero"></path><path stroke="#000000" stroke-width="1.0" stroke-linejoin="round" stroke-linecap="butt" d="m154.05905 611.2651l662.91077 0l0 80.38849l-662.91077 0z" fill-rule="nonzero"></path><path fill="#000000" d="m464.59842 659.9993l0 -17.1875l6.4375 0q1.96875 0 3.15625 0.53125q1.1875 0.515625 1.859375 1.609375q0.6875 1.078125 0.6875 2.265625q0 1.09375 -0.609375 2.078125q-0.59375 0.96875 -1.796875 1.5625q1.5625 0.453125 2.390625 1.5625q0.84375 1.09375 0.84375 2.59375q0 1.203125 -0.515625 2.25q-0.5 1.03125 -1.25 1.59375q-0.75 0.5625 -1.890625 0.859375q-1.125 0.28125 -2.765625 0.28125l-6.546875 0zm2.265625 -9.96875l3.71875 0q1.515625 0 2.171875 -0.1875q0.859375 -0.265625 1.296875 -0.859375q0.4375 -0.59375 0.4375 -1.5q0 -0.859375 -0.40625 -1.5q-0.40625 -0.65625 -1.171875 -0.890625q-0.765625 -0.25 -2.609375 -0.25l-3.4375 0l0 5.1875zm0 7.9375l4.28125 0q1.09375 0 1.546875 -0.078125q0.78125 -0.140625 1.3125 -0.46875q0.53125 -0.328125 0.859375 -0.953125q0.34375 -0.625 0.34375 -1.453125q0 -0.953125 -0.5 -1.65625q-0.484375 -0.71875 -1.359375 -1.0q-0.875 -0.296875 -2.515625 -0.296875l-3.96875 0l0 5.90625zm13.8828125 2.03125l0 -17.1875l12.421875 0l0 2.03125l-10.15625 0l0 5.265625l9.5 0l0 2.015625l-9.5 0l0 5.84375l10.546875 0l0 2.03125l-12.8125 0zm15.8671875 0l0 -17.1875l2.265625 0l0 15.15625l8.46875 0l0 2.03125l-10.734375 0z" fill-rule="nonzero"></path></g></svg>

